<svg id="Layer_1" height="512" viewBox="0 0 512 512" width="512" xmlns="http://www.w3.org/2000/svg" data-name="Layer 1"><g fill-rule="evenodd"><path d="m503.989 379.577h-40.941v-167.308a3.99 3.99 0 0 0 -4-4h-45.222a3.991 3.991 0 0 0 -4 4v167.308h-18.295v-106.514a4.042 4.042 0 0 0 -4-4h-18.617v-55.22l71.444-76.987v26.621a4 4 0 0 0 8 0v-35a3.991 3.991 0 0 0 -4-4h-35a3.992 3.992 0 0 0 -4 4 4.039 4.039 0 0 0 4 4h24.179l-64.627 69.545v-120.914a32.859 32.859 0 0 0 -32.81-32.862h-261.927a32.858 32.858 0 0 0 -32.812 32.862v24.292h-12.273a25.076 25.076 0 1 0 0 50.151h12.273v75.367h-12.273a25.111 25.111 0 0 0 0 50.222h12.273v75.295h-12.273a25.111 25.111 0 0 0 0 50.222h12.273v24.288a32.842 32.842 0 0 0 32.812 32.791h261.927a32.844 32.844 0 0 0 32.819-32.791v-43.366h135.07a4.042 4.042 0 0 0 4-4 4 4 0 0 0 -4-4.002z" fill="#d1e7ff"/><path d="m236.5 375.577h-29.219v-70.51h29.219zm71.509 0h-29.209v-129.946h29.211v129.946zm48.914 55.364v-39.362h-202.577a8 8 0 1 1 0-16h36.933v-78.513a7.992 7.992 0 0 1 8-8h45.221a8 8 0 0 1 8 8v78.511h10.3v-137.948a7.991 7.991 0 0 1 7.994-8h45.216a7.992 7.992 0 0 1 8 8v137.948h10.3v-102.514a8.043 8.043 0 0 1 8-8h14.609v-48.579l-62.5-43.006-66.809 68.366a8.137 8.137 0 0 1 -5.722 2.429 8.029 8.029 0 0 1 -5.716-13.644l71.517-73.153a7.977 7.977 0 0 1 10.252-1l58.979 40.576v-115.944a20.863 20.863 0 0 0 -20.82-20.86h-198.928v391.482h198.928a20.848 20.848 0 0 0 20.824-20.789zm-303.563 0v-20.288h8.273a29.111 29.111 0 0 0 0-58.222h-8.273v-67.295h8.273a29.111 29.111 0 0 0 0-58.222h-8.273v-67.367h8.273a29.076 29.076 0 1 0 0-58.151h-8.273v-20.288a20.862 20.862 0 0 1 20.818-20.86h46.992v391.482h-46.992a20.847 20.847 0 0 1 -20.818-20.789zm-37.369-49.435a13.114 13.114 0 0 0 13.1 13.145h32.54a13.109 13.109 0 0 0 0-26.218h-32.538a13.1 13.1 0 0 0 -13.1 13.073zm0-125.517a13.161 13.161 0 0 0 13.1 13.145h32.54a13.109 13.109 0 0 0 0-26.218h-32.538a13.1 13.1 0 0 0 -13.1 13.073zm0-125.517a13.1 13.1 0 0 0 13.1 13.073h32.54a13.109 13.109 0 0 0 0-26.218h-32.538a13.161 13.161 0 0 0 -13.1 13.145zm363.542 245.105h-29.218v-94.513h29.218zm42.3-155.307h29.217v155.307h-29.218v-155.307zm82.161 155.307h-36.942v-163.308a7.992 7.992 0 0 0 -8-8h-45.22a7.992 7.992 0 0 0 -8 8v163.308h-10.297v-102.514a8.043 8.043 0 0 0 -8-8h-14.617v-49.65l63.444-68.366v16.43a8 8 0 0 0 16 0v-35a7.993 7.993 0 0 0 -8-8h-35a8 8 0 0 0 0 16h15l-51.45 55.365v-110.734a36.86 36.86 0 0 0 -36.812-36.862h-261.922a36.859 36.859 0 0 0 -36.813 36.862v20.292h-8.272a29.076 29.076 0 1 0 0 58.151h8.272v67.367h-8.272a29.111 29.111 0 0 0 0 58.222h8.272v67.295h-8.272a29.111 29.111 0 0 0 0 58.222h8.272v20.288a36.844 36.844 0 0 0 36.813 36.791h261.922a36.845 36.845 0 0 0 36.819-36.791v-39.366h131.074a8 8 0 1 0 0-16z" fill="#2e58ff"/></g></svg>