<svg id="Capa_1" enable-background="new 0 0 64 64" height="512" viewBox="0 0 64 64" width="512" xmlns="http://www.w3.org/2000/svg"><g><path d="m60 51h-6v-30c0-.6-.4-1-1-1h-7c-.6 0-1 .4-1 1v30h-3v-19c0-.6-.4-1-1-1h-7c-.6 0-1 .4-1 1v19h-3v-23c0-.6-.4-1-1-1h-7c-.6 0-1 .4-1 1v23h-2v-14c0-.6-.4-1-1-1h-7c-.6 0-1 .4-1 1v14h-5v-39c0-.6-.4-1-1-1s-1 .4-1 1v40c0 .6.4 1 1 1h7 7 4 7 5 7 5 7 7c.6 0 1-.4 1-1s-.4-1-1-1zm-48 0v-13h5v13zm11 0v-22h5v22zm12 0v-18h5v18zm12 0v-29h5v29z"/><path d="m11 30c.2 0 .4-.1.6-.2l14-10.6 11.4 7.1c.4.3 1 .2 1.3-.2l9.7-11.487v.387c0 .6.4 1 1 1s1-.4 1-1v-3c0-.456-.233-.794-.607-.931-.207-.114-.435-.133-.661-.069h-2.732c-.6 0-1 .4-1 1s.4 1 1 1h.752l-9.452 11.1-11.3-7c-.3-.2-.8-.1-1.1.1l-14.5 11c-.4.3-.5 1-.2 1.4.2.3.5.4.8.4z"/></g></svg>