<svg fill="none" height="512" viewBox="0 0 512 512" width="512" xmlns="http://www.w3.org/2000/svg" xmlns:xlink="http://www.w3.org/1999/xlink"><linearGradient id="lg1"><stop offset="0" stop-color="#fd6700"/><stop offset="1" stop-color="#ffce00"/></linearGradient><linearGradient id="paint0_linear_33_24" gradientUnits="userSpaceOnUse" x1="255.998" x2="255.996" xlink:href="#lg1" y1="32" y2="399.97"/><linearGradient id="paint1_linear_33_24" gradientUnits="userSpaceOnUse" x1="256.004" x2="256.004" xlink:href="#lg1" y1="432" y2="480"/><path d="m440.08 341.31c-1.66-2-3.29-4-4.89-5.93-22-26.61-35.31-42.67-35.31-118 0-39-9.33-71-27.72-95-13.56-17.73-31.89-31.18-56.05-41.12-.311-.1729-.588-.3998-.82-.67-8.69-29.1-32.47-48.59-59.29-48.59s-50.59 19.49-59.28 48.56c-.232.2603-.505.48-.81.65-56.38 23.21-83.78 67.74-83.78 136.14 0 75.36-13.2896 91.42-35.3096 118-1.6 1.93-3.23 3.89-4.89 5.93-4.288 5.171-7.0048 11.463-7.8289 18.13s.2791 13.43 3.1789 19.49c6.17 13 19.32 21.07 34.3296 21.07h308.89c14.94 0 28-8.06 34.19-21 2.913-6.061 4.026-12.83 3.209-19.505s-3.53-12.975-7.819-18.155z" fill="url(#paint0_linear_33_24)"/><path d="m256 480c14.45-.012 28.628-3.934 41.029-11.351 12.402-7.418 22.564-18.053 29.411-30.779.322-.61.481-1.293.462-1.982-.019-.69-.217-1.363-.573-1.954-.356-.59-.859-1.079-1.46-1.418s-1.28-.517-1.969-.516h-133.78c-.691-.002-1.371.174-1.973.512-.602.339-1.107.827-1.464 1.418-.358.591-.556 1.265-.576 1.955-.02.691.14 1.374.463 1.985 6.845 12.724 17.006 23.359 29.406 30.776 12.399 7.417 26.575 11.341 41.024 11.354z" fill="url(#paint1_linear_33_24)"/></svg>