<svg id="Layer_1" height="512" viewBox="0 0 512 512" width="512" xmlns="http://www.w3.org/2000/svg"><path d="m443.374 112.264c10.918 24.719 13.828 51.826 8.417 78.389-.754 3.7-4.009 6.252-7.644 6.252-.517 0-1.041-.051-1.567-.159-4.226-.861-6.954-4.984-6.093-9.21 9.521-46.738-11.311-95.008-51.837-120.113-3.666-2.272-4.797-7.085-2.526-10.751s7.085-4.795 10.751-2.526c22.362 13.852 39.825 33.949 50.499 58.118zm-375.521 84.641c.516 0 1.041-.051 1.567-.159 4.226-.861 6.954-4.984 6.093-9.21-9.521-46.738 11.311-95.008 51.837-120.113 3.666-2.272 4.797-7.085 2.526-10.751-2.272-3.668-7.085-4.797-10.751-2.526-22.362 13.852-39.825 33.949-50.499 58.118-10.918 24.719-13.828 51.826-8.417 78.389.754 3.7 4.008 6.252 7.644 6.252zm96.161 40.082c.321 0 .645-.02.972-.06 4.28-.531 7.318-4.432 6.787-8.712-5.878-47.334 18.625-93.848 60.971-115.745 3.831-1.981 5.331-6.692 3.35-10.523s-6.693-5.332-10.523-3.35c-23.367 12.082-42.331 30.769-54.843 54.039-12.796 23.801-17.795 50.601-14.454 77.504.491 3.953 3.856 6.847 7.74 6.847zm332.666-154.854c-14.779-33.461-38.954-61.285-69.912-80.463-3.666-2.27-8.479-1.141-10.751 2.526-2.271 3.666-1.14 8.479 2.526 10.751 58.232 36.073 88.165 105.432 74.485 172.589-.861 4.226 1.868 8.35 6.093 9.21.526.108 1.05.159 1.567.159 3.635 0 6.89-2.552 7.644-6.252 7.491-36.775 3.461-74.301-11.652-108.52zm-403.223-67.187c3.666-2.272 4.797-7.085 2.526-10.751-2.272-3.668-7.085-4.797-10.751-2.526-30.958 19.179-55.133 47.003-69.912 80.464-15.114 34.22-19.143 71.746-11.652 108.52.754 3.7 4.008 6.252 7.644 6.252.516 0 1.041-.051 1.567-.159 4.226-.861 6.954-4.984 6.093-9.21-13.681-67.158 16.253-136.516 74.485-172.59zm344.425 350.415c7.503 18.072 11.307 37.222 11.307 56.916 0 2.569-.067 5.187-.199 7.779-.162 3.183-2.242 5.947-5.255 6.985-34.822 11.999-72.144 19.468-113.914 22.818-12.306 31.095-42.231 51.643-76.073 51.643-33.847 0-63.775-20.547-76.081-51.643-41.778-3.351-79.101-10.82-113.915-22.819-3.013-1.038-5.092-3.802-5.255-6.985-.132-2.592-.199-5.21-.199-7.779 0-19.693 3.804-38.842 11.307-56.916 0-.001.001-.002.001-.002 4.966-11.949 11.504-23.237 19.433-33.549 14.375-18.722 22.293-42.187 22.293-66.07v-72.803c0-29.704 9.053-58.171 26.182-82.324 15.552-21.93 36.627-38.798 61.209-49.09-.062-1.071-.105-2.144-.105-3.218 0-30.399 24.731-55.13 55.13-55.13 30.394 0 55.122 24.732 55.122 55.13 0 1.156-.05 2.315-.122 3.472 52.525 22.598 87.408 75.804 87.408 134.333v69.687c0 23.846 7.918 47.291 22.297 66.018 7.926 10.308 14.464 21.595 19.43 33.545-.001.001-.001.001-.001.002zm-223.576-309.341c14.416-4.154 29.378-5.979 44.612-5.438 11.685.42 23.171 2.294 34.273 5.572-1.121-20.791-18.382-37.362-39.444-37.362-21.019 0-38.253 16.501-39.441 37.228zm-126.683 307.425c70.85 20.812 123.635 23.709 166.124 23.709 42.486 0 95.267-2.896 166.116-23.709-3.852-7.782-8.474-15.194-13.796-22.116-16.464-21.444-25.53-48.266-25.53-75.533v-69.686c0-54.163-33.356-103.202-83.002-122.029-12.515-4.751-25.696-7.406-39.178-7.89-16.697-.601-33.016 2-48.504 7.717-49.588 18.307-82.905 66.14-82.905 119.029v72.803c0 27.303-9.065 54.146-25.527 75.585-5.323 6.925-9.946 14.338-13.798 22.12zm224.467 97.591c-19.499 1.01-37.17 1.076-52.125 1.076-1.074 0-2.132-.001-3.178-.001l-3.041-.001-3.041.001c-15.606-.007-34.411.002-55.311-1.078 11.375 21.234 33.564 34.852 58.352 34.852 24.785 0 46.97-13.617 58.344-34.849zm121.482-38.759c0-15.256-2.548-30.141-7.584-44.348-73.604 21.833-128.285 24.843-172.241 24.843-43.959 0-98.644-3.01-172.249-24.843-5.035 14.208-7.584 29.094-7.584 44.348 0 .568.004 1.14.011 1.712 33.481 11.019 69.505 17.796 109.92 20.691 25.434 1.826 48.4 1.809 66.856 1.813l3.046-.001 3.045.001c18.453-.002 41.414.013 66.847-1.813 40.41-2.894 76.43-9.67 109.921-20.691.008-.573.012-1.144.012-1.712z"/></svg>