<svg fill="none" height="50" viewBox="0 0 50 50" width="50" xmlns="http://www.w3.org/2000/svg" xmlns:xlink="http://www.w3.org/1999/xlink"><linearGradient id="paint0_linear_4_2675" gradientUnits="userSpaceOnUse" x1="25.002" x2="25.002" y1="4.158" y2="45.846"><stop offset="0" stop-color="#f12711"/><stop offset="1" stop-color="#f5ae19"/></linearGradient><path d="m23.0626 12.7501c.6316-.1704 1.2833-.2545 1.9375-.25 2.2101 0 4.3297.8779 5.8925 2.4407s2.4408 3.6825 2.4408 5.8926v2.7917c0 .5525.2195 1.0824.6102 1.4731s.9206.6102 1.4731.6102c.5526 0 1.0825-.2195 1.4732-.6102s.6102-.9206.6102-1.4731v-2.7917c-.003-2.9518-1.0506-5.8074-2.9571-8.0609s-4.5491-3.75964-7.4596-4.25161v-2.27083c0-.55253-.2195-1.08244-.6102-1.47314s-.9206-.61019-1.4731-.61019c-.5526 0-1.0825.21949-1.4732.61019s-.6102.92061-.6102 1.47314v2.29167l-.9375.16666c-.5359.14366-.9929.49435-1.2703.97491-.2774.4806-.3525 1.0516-.2088 1.5876.1436.536.4943.9929.9749 1.2703.4805.2774 1.0516.3525 1.5876.2089zm22.1666 29.5208-37.49997-37.50001c-.3923-.3923-.92437-.61269-1.47917-.61269-.55479 0-1.08687.22039-1.47917.61269s-.61269.92438-.61269 1.47917c0 .5548.22039 1.08687.61269 1.47917l8.58331 8.56247c-.5645 1.4477-.8542 2.9879-.8541 4.5417v6.625c-1.2158.4298-2.2688 1.2251-3.01475 2.2769-.74596 1.0518-1.14833 2.3086-1.15196 3.5981v4.1667c0 .5525.2195 1.0824.6102 1.4731s.9206.6102 1.47311.6102h6.5417c.4798 1.7653 1.5271 3.3238 2.9804 4.4349 1.4533 1.111 3.2319 1.713 5.0613 1.713 1.8293 0 3.6079-.602 5.0612-1.713 1.4533-1.1111 2.5007-2.6696 2.9804-4.4349h3.6042l5.625 5.6458c.1937.1953.4241.3503.678.4561.2538.1057.5261.1602.8012.1602.275 0 .5473-.0545.8012-.1602.2538-.1058.4843-.2608.6779-.4561.1953-.1936.3503-.4241.4561-.6779.1057-.2539.1602-.5262.1602-.8012 0-.2751-.0545-.5474-.1602-.8012-.1058-.2539-.2608-.4843-.4561-.678zm-28.5625-21.4375c-.0318-.3813-.0318-.7646 0-1.1458l7.4792 7.3958h-7.4792zm8.3334 20.8333c-.7272-.0044-1.4405-.199-2.0691-.5644-.6287-.3655-1.1507-.8892-1.5143-1.5189h7.1667c-.3636.6297-.8856 1.1534-1.5142 1.5189-.6287.3654-1.342.56-2.0691.5644zm-12.5-6.25v-2.0833c0-.5525.2195-1.0824.6102-1.4731s.9206-.6102 1.4731-.6102h13.7292l4.1666 4.1666z" fill="url(#paint0_linear_4_2675)"/></svg>