<svg id="Layer_1" viewBox="0 0 64 64" xmlns="http://www.w3.org/2000/svg" data-name="Layer 1"><path d="m53.801 7.21v-1.86c0-.91-.353-1.755-.973-2.357-.622-.64-1.467-.992-2.378-.992-1.847 0-3.35 1.503-3.35 3.35v1.847h-5.604v-1.847c0-.909-.352-1.754-.981-2.367-.634-.634-1.475-.982-2.368-.982-1.847 0-3.35 1.503-3.35 3.35v1.847h-5.603v-1.847c0-.91-.353-1.755-.973-2.357-.622-.64-1.467-.992-2.378-.992-1.847 0-3.35 1.503-3.35 3.35v1.847h-5.592v-1.847c0-.909-.352-1.754-.973-2.358-.623-.639-1.468-.991-2.377-.991-1.847 0-3.35 1.503-3.35 3.35v1.86c-3.111.135-5.604 2.706-5.604 5.856v8.23c0 .007-.004.012-.004.019s.004.013.004.019v34.793c0 3.236 2.628 5.869 5.857 5.869h43.08c3.236 0 5.869-2.633 5.869-5.869v-43.066c0-3.146-2.49-5.715-5.603-5.856zm-4.7-1.86c0-.744.605-1.35 1.35-1.35.366 0 .702.138.964.406.249.242.387.577.387.943v5.683c0 .751-.605 1.361-1.351 1.361s-1.35-.61-1.35-1.361zm-12.303 0c0-.744.605-1.35 1.35-1.35.359 0 .698.141.963.405.249.243.387.578.387.944v5.683c0 .751-.605 1.361-1.35 1.361s-1.35-.61-1.35-1.361zm-12.303 0c0-.744.605-1.35 1.35-1.35.366 0 .702.138.964.406.249.242.387.577.387.943v5.683c0 .751-.605 1.361-1.351 1.361s-1.35-.61-1.35-1.361zm-12.291 0c0-.744.605-1.35 1.35-1.35.366 0 .701.138.963.405.249.243.387.578.387.944v5.683c0 .751-.605 1.361-1.35 1.361s-1.35-.61-1.35-1.361zm-2 3.854v1.828c0 1.854 1.503 3.361 3.35 3.361s3.35-1.508 3.35-3.361v-1.836h5.592v1.836c0 1.854 1.503 3.361 3.35 3.361s3.351-1.508 3.351-3.361v-1.836h5.603v1.836c0 1.854 1.503 3.361 3.35 3.361s3.35-1.508 3.35-3.361v-1.836h5.604v1.836c0 1.854 1.503 3.361 3.35 3.361s3.351-1.508 3.351-3.361v-1.827c2.01.138 3.603 1.816 3.603 3.86v7.249h-50.807v-7.249c0-2.048 1.595-3.729 3.604-3.861zm43.33 50.796h-43.076c-2.127 0-3.857-1.735-3.857-3.869v-33.817h50.802v33.817c0 2.134-1.735 3.869-3.869 3.869z"/><path d="m9.742 25.613c-.553 0-1 .447-1 1v1.127c0 .553.447 1 1 1s1-.447 1-1v-1.127c0-.553-.447-1-1-1z"/><path d="m9.742 30.517c-.553 0-1 .447-1 1v19.226c0 .553.447 1 1 1s1-.447 1-1v-19.226c0-.553-.447-1-1-1z"/></svg>