<svg fill="none" height="24" viewBox="0 0 24 24" width="24" xmlns="http://www.w3.org/2000/svg"><g clip-rule="evenodd" fill-rule="evenodd"><path d="m1 6c0-1.65685 1.34315-3 3-3h16c1.6569 0 3 1.34315 3 3v14c0 1.6569-1.3431 3-3 3h-16c-1.65685 0-3-1.3431-3-3zm3-1c-.55228 0-1 .44772-1 1v14c0 .5523.44772 1 1 1h16c.5523 0 1-.4477 1-1v-14c0-.55228-.4477-1-1-1z" fill="#3747d6"/><path d="m1 6c0-1.65685 1.34315-3 3-3h16c1.6569 0 3 1.34315 3 3v3c0 .55228-.4477 1-1 1h-20c-.55228 0-1-.44772-1-1zm3-1c-.55228 0-1 .44772-1 1v2h18v-2c0-.55228-.4477-1-1-1z" fill="#3747d6"/><g fill="#9545ed"><path d="m6 2v3.5h-2v-3.5z"/><path d="m13 2v3.5h-2v-3.5z"/><path d="m20 2v3.5h-2v-3.5z"/><path d="m11 18v1.5h2v-1.5z"/><path d="m11 11.5v4h2v-4z"/></g></g></svg>