<svg fill="none" height="24" viewBox="0 0 24 24" width="24" xmlns="http://www.w3.org/2000/svg"><path clip-rule="evenodd" d="m2 12c0-5.52285 4.47715-10 10-10 5.5228 0 10 4.47715 10 10 0 5.5228-4.4772 10-10 10-5.52285 0-10-4.4772-10-10zm8.7071-2.70711c-.3905-.39052-1.02368-.39052-1.41421 0-.39052.39053-.39052 1.02371 0 1.41421l1.29291 1.2929-1.29291 1.2929c-.39052.3905-.39052 1.0237 0 1.4142.39053.3905 1.02371.3905 1.41421 0l1.2929-1.2929 1.2929 1.2929c.3905.3905 1.0237.3905 1.4142 0s.3905-1.0237 0-1.4142l-1.2929-1.2929 1.2929-1.2929c.3905-.3905.3905-1.02368 0-1.41421-.3905-.39052-1.0237-.39052-1.4142 0l-1.2929 1.29291z" fill="rgb(0,0,0)" fill-rule="evenodd"/></svg>