<svg height="512" viewBox="0 0 512 531.49" width="512" xmlns="http://www.w3.org/2000/svg"><g id="Layer_2" data-name="Layer 2"><g id="Layer_1-2" data-name="Layer 1"><path d="m438 75.52c-48.26-48.7-112.89-75.52-182-75.52-68.6 0-133.13 27-181.7 76s-74.92 113.81-74.3 182.4v173a20 20 0 0 0 20.05 20 20 20 0 0 0 19.94-20v-173.27c-.56-57.88 21.72-112.55 62.71-153.94s95.45-64.19 153.3-64.19c58.36 0 112.89 22.61 153.56 63.67s63 96.07 62.43 154.46c-1.13 117.95-98.43 213.87-216.99 213.87h-.21c-6.78 0-13.5-.32-20.16-.92.21-2.17.33-4.36.33-6.59a67 67 0 1 0 -17.26 44.89 261.52 261.52 0 0 0 37.11 2.62h.25a256.25 256.25 0 0 0 256.94-253.49c.65-69.14-25.63-134.13-74-182.99z"/><circle cx="172.74" cy="256" r="25"/><circle cx="255.74" cy="256" r="25"/><circle cx="338.74" cy="256" r="25"/></g></g></svg>