<svg height="24" viewBox="0 0 24 24" width="24" xmlns="http://www.w3.org/2000/svg" xmlns:sketch="http://www.bohemiancoding.com/sketch/ns"><g id="miu" fill="none" fill-rule="evenodd"><g id="Artboard-1" transform="translate(-863 -443)"><g id="slice" transform="translate(215 119)"/><path id="editor-alarm-timer-clock-outline-stroke" d="m879.293123 463.912016 2.096871 2.087984.700012-.697045-1.933713-1.925517c2.324045-1.627358 3.843707-4.32493 3.843707-7.377438 0-4.970563-4.029437-9-9-9s-9 4.029437-9 9c0 3.020924 1.488376 5.694218 3.771825 7.32658l-1.984787 1.976375.700012.697045 2.140636-2.131563c1.294525.720879 2.785459 1.131563 4.372314 1.131563 1.554595 0 3.017131-.394156 4.293123-1.087984zm-4.293123.087984c4.418278 0 8-3.581722 8-8s-3.581722-8-8-8-8 3.581722-8 8 3.581722 8 8 8zm0-8.008249v-5.991751h.995279v5.991751h.004721v1.004342h-.004721v.003907h-.995279v-.003907h-4v-1.004342zm-5.115505-9.328246c-.339611-.434683-.970361-.512214-1.402671-.174457l-1.57931 1.233893c-.432625.338004-.509159.969185-.170062 1.40321l.474304.607082c-.217407.270021-.42107.551576-.609924.843602l-.652391-.835023c-.677809-.867556-.527093-2.127551.342412-2.806882l1.57931-1.233892c.866538-.677014 2.125947-.524062 2.806342.346805l.541866.693556c-.317755.130058-.627326.275999-.927726.436835zm13.383053 2.462646c.339611-.434683.262247-1.065453-.170062-1.40321l-1.57931-1.233893c-.432626-.338004-1.063574-.259567-1.402671.174457l-.40215.514729c-.3004-.160836-.609971-.306777-.927726-.436835l.541866-.693556c.677809-.867556 1.936838-1.026137 2.806342-.346805l1.57931 1.233892c.866538.677014 1.022808 1.936015.342412 2.806882l-.652391.835023c-.188854-.292026-.392517-.573581-.609924-.843602z" fill="#000"/></g></g></svg>