<svg id="Layer_1" enable-background="new 0 0 512 512" height="512" viewBox="0 0 512 512" width="512" xmlns="http://www.w3.org/2000/svg"><g><g><path d="m256 470c-57.2 0-110.9-22.3-151.3-62.7s-62.7-94.1-62.7-151.3 22.3-110.9 62.7-151.3 94.1-62.7 151.3-62.7 110.9 22.3 151.3 62.7 62.7 94.1 62.7 151.3-22.3 110.9-62.7 151.3-94.1 62.7-151.3 62.7zm0-404c-104.8 0-190 85.2-190 190s85.2 190 190 190 190-85.2 190-190-85.2-190-190-190z" fill="#6040ec"/></g><path d="m273 256 47.6-47.6c4.7-4.7 4.7-12.3 0-17s-12.3-4.7-17 0l-47.6 47.6-46.3-46.3c-4.7-4.7-12.3-4.7-17 0s-4.7 12.3 0 17l46.3 46.3-47.6 47.6c-4.7 4.7-4.7 12.3 0 17 2.3 2.3 5.4 3.5 8.5 3.5s6.1-1.2 8.5-3.5l47.6-47.6 46.3 46.3c2.3 2.3 5.4 3.5 8.5 3.5s6.1-1.2 8.5-3.5c4.7-4.7 4.7-12.3 0-17z" fill="#0bdc49"/></g></svg>