<svg id="Layer_1" viewBox="0 0 64 64" xmlns="http://www.w3.org/2000/svg" data-name="Layer 1"><path d="m60 31.9c-3.407 7.227-10.789 12.1-19.05 12.1-2.021 0-3.99-.298-5.881-.847-.49 2.005-1.845 6.247-5.013 9.106-.191.173-.431.258-.67.258-.272 0-.545-.111-.742-.33-.37-.41-.338-1.042.072-1.412 2.857-2.578 4.054-6.598 4.449-8.275-1.785-.713-3.483-1.663-5.046-2.866-.405-.312-.51-.881-.241-1.317l4.182-6.786-10.201-1.136c-.087-.01-.171-.034-.25-.064-.044-.017-.082-.042-.123-.065-.061-.034-.119-.07-.171-.115-.044-.038-.081-.08-.118-.125-.031-.038-.057-.079-.082-.122-.033-.055-.065-.108-.087-.169 0-.002-.002-.003-.003-.005-.746-2.153-1.124-4.433-1.124-6.777 0-8.259 4.873-15.636 12.1-19.04-15.44-.003-28.001 12.558-28.001 27.997s12.561 28 28 28 28-12.561 28-28z"/></svg>