<svg id="Layer_1" enable-background="new 0 0 103 103" height="512" viewBox="0 0 103 103" width="512" xmlns="http://www.w3.org/2000/svg"><g><g><g><g><g><path d="m19.7 96.5c.4 1.7 1.9 3 3.7 3h45.2c1.8 0 3.3-1.3 3.7-3z" fill="#e9f1fe"/></g></g><g><g><path d="m90.4 30.7v7.1c0 2.7-2.2 5-5 5h-33.8v-33.3c0-2.2 1.8-4 4-4h38.8c-2.2 0-4 1.8-4 4v16.3" fill="#fff"/></g><g><path d="m98.5 9.5v8.6h-8.1v-8.6c0-2.2 1.8-4 4-4 1.1 0 2.1.5 2.9 1.2.7.7 1.2 1.7 1.2 2.8z" fill="#b5d8fe"/></g><g><g><path d="m76.4 15.3c-2.2 0-4 1.9-4 4.3v76c0 2.1-1.7 3.8-3.8 3.8h-45.2c-2.1 0-3.8-1.7-3.8-3.8v-76c0-2.4 1.8-4.3 4-4.3z" fill="#fff"/></g></g><g><g><g><path d="m41.2 20.7v6.1c0 .4-.3.8-.6.9l-3.6 1.4 1.6 3.5c.2.4.1.8-.2 1.1l-4.4 4.4c-.3.3-.8.4-1.1.2l-3.5-1.6-1.4 3.6c-.2.4-.6.7-1 .7h-6.1c-.4 0-.8-.3-.9-.7l-.3-.9v-19.7c0-2.4 1.8-4.3 4-4.3h14.7l-1.4 3.1 3.6 1.4c.3 0 .6.4.6.8z" fill="#e9f1fe"/></g></g></g><g><path d="m85.4 42.8h-13v-23.4c0-2.2 1.8-4 4-4 1.1 0 2.1.4 2.8 1.2.7.7 1.2 1.7 1.2 2.8v18.5c0 2.7 2.3 4.9 5 4.9z" fill="#b5d8fe"/></g><g><g><path d="m29.6 73.5h5.5v8.3h-5.5z" fill="#b5d8fe"/></g><g><path d="m38.8 64.5h5.5v17.3h-5.5z" fill="#b5d8fe"/></g><g><path d="m48 70.5h5.5v11.3h-5.5z" fill="#b5d8fe"/></g><g><path d="m57.2 59.5h5.5v22.3h-5.5z" fill="#b5d8fe"/></g></g><g><path d="m36.2 22.8-4.7 1.8 2.1 4.5-4.3 4.3-4.6-2-1.7 4.6h-6.1l-1.8-4.6-4.5 2-4.3-4.3 2-4.5-4.6-1.8v-6.1l4.6-1.8-2-4.5 4.3-4.3 4.5 2 1.8-4.6h6.1l1.7 4.6 4.6-2 4.3 4.3-2.1 4.5 4.7 1.8z" fill="#b5d8fe"/></g><g><g><path d="m21.8 27.6c-3.5 0-6.3-2.8-6.3-6.3s2.8-6.3 6.3-6.3 6.3 2.8 6.3 6.3-2.8 6.3-6.3 6.3z" fill="#9bcafc"/></g></g><g><g fill="#fff"><path d="m25.2 19.8c0 2.9-2.4 5.3-5.3 5.3s-5.3-2.4-5.3-5.3 2.4-5.3 5.3-5.3c3 0 5.3 2.3 5.3 5.3z"/><path d="m19.9 26c-3.5 0-6.3-2.8-6.3-6.3s2.8-6.3 6.3-6.3 6.3 2.8 6.3 6.3-2.8 6.3-6.3 6.3z"/></g></g><g><g><path d="m47.6 59.7c-6.3 6.3-6.3 16.4 0 22.7 5.6 5.6 14.2 6.2 20.4 1.9.8-.5 1.5-1.2 2.3-1.9.7-.7 1.3-1.5 1.9-2.3 4.3-6.2 3.7-14.9-1.9-20.4-6.3-6.3-16.5-6.3-22.7 0zm19.3 19.3c-4.4 4.4-11.6 4.4-16 0s-4.4-11.6 0-16 11.6-4.4 16 0c4.4 4.5 4.4 11.6 0 16z" fill="#b5d8fe"/></g><g><g><path d="m86.1 98.2c-1.8 1.8-4.8 1.7-6.5-.2l-9.3-11-2.3-2.8c.8-.5 1.6-1.2 2.3-1.9s1.3-1.5 1.9-2.3l2.9 2.4 10.9 9.2c1.8 1.8 1.9 4.8.1 6.6z" fill="#b5d8fe"/></g></g><g><g><path d="m75 82.5c-.6.8-1.2 1.6-1.9 2.3-.7.8-1.5 1.4-2.4 2-.1.1-.2.2-.3.2l-2.4-2.8c.8-.5 1.6-1.2 2.3-1.9s1.3-1.5 1.9-2.3z" fill="#e9f1fe"/></g></g><g fill="#077af1"><path d="m94.4 4.5h-38.8c-2.8 0-5 2.3-5 5v4.8h-17.7l1.6-3.5c.2-.4.1-.8-.2-1.1l-4.3-4.3c-.3-.3-.7-.4-1.1-.2l-3.5 1.6-1.4-3.6c-.1-.4-.5-.7-.9-.7h-6.1c-.4 0-.8.3-.9.7l-1.4 3.6-3.7-1.6c-.3-.2-.8-.1-1.1.2l-4.3 4.3c-.3.3-.4.7-.2 1.1l1.6 3.6-3.6 1.4c-.4.1-.7.5-.7.9v6.1c0 .4.3.8.7.9l3.6 1.4-1.6 3.6c-.2.4-.1.8.2 1.1l4.3 4.3c.3.3.8.4 1.1.2l3.5-1.6 1.4 3.6c.1.4.5.6.9.6h1.7v10.4c0 .6.4 1 1 1s1-.4 1-1v-10.3h2.5c.4 0 .8-.3.9-.6l1.4-3.6 3.5 1.6c.4.2.8.1 1.1-.2l1.9-1.9h13.3c.6 0 1-.4 1-1s-.4-1-1-1h-11.2l.4-.4c.3-.3.4-.8.2-1.1l-1.6-3.6 3.3-1.3h8.9c.6 0 1-.4 1-1 0-.5-.4-1-1-1h-7.9v-5.2c0-.1 0-.2-.1-.3h35.3c-.6.8-1 1.9-1 3v23.5.1 16.5c-.1-.2-.3-.3-.4-.5-6.6-6.6-17.4-6.6-24.1 0-1.4 1.4-2.4 2.9-3.2 4.5h-4.8c-.6 0-1 .4-1 1v16.3h-1.7v-7.3c0-.6-.4-1-1-1h-5.5c-.6 0-1 .4-1 1v7.3h-1.4c-.5 0-1 .4-1 1s.5 1 1 1h19.3c3.6 3.6 7.8 5.3 12.4 5.3 3.1 0 6.1-.8 8.9-2.5l3.6 4.3v5.9c0 1.5-1.3 2.8-2.8 2.8h-45.3c-1.5 0-2.8-1.3-2.8-2.8v-43.4c0-.5-.4-1-1-1s-1 .5-1 1v43.3c0 1 .3 2 .9 2.8h-10.2c-.6 0-1 .5-1 1s.4 1 1 1h83.6c.6 0 1-.5 1-1s-.4-1-1-1h-5.8c1.8-2.2 1.7-5.5-.6-7.5l-4.9-4.1c-.4-.4-1.1-.3-1.4.1-.4.4-.3 1.1.1 1.4l4.8 4.1c1.5 1.3 1.6 3.6.1 5-1.4 1.4-3.7 1.3-5-.1-.1-.1-10.9-13-10.9-13 1.1-.8 2.2-2 2.8-2.8.1.1 5.6 4.7 5.9 5 .4.3 1 .3 1.4-.1.3-.4.3-1.1-.1-1.4l-6.1-5.1c3.4-5.5 3.3-12.5-.1-17.9v-18.3h12c3.3 0 6-2.7 6-6v-7.1c0-.5-.4-1-1-1-.5 0-1 .5-1 1v7.1c0 2.2-1.8 4-4 4-2.2 0-3.9-1.8-3.9-4v-18.4c0-2.7-2.2-5-5-5h-23.6v-4.9c0-1.7 1.4-3 3-3h34.8c-.7.9-1 2-1 3v.3 16c0 .6.5 1 1 1 .6 0 1-.4 1-1v-6.6h7.1c.6 0 1-.5 1-1v-8.7c0-2.7-2.2-5-5.1-5zm-59.2 17.6c-.1 0-4.7 1.9-4.4 1.7-.1.1-.2.2-.2.3-.1.2-.1.5 0 .8v.1l1.8 3.9-1.4 1.3-2 2-2.7-1.2-1.1-.5s0 0-.1 0c-.2-.1-.5-.1-.7 0-.3.1-.5.3-.6.6l-1.5 4h-4.8l-1.5-4c-.1-.3-.3-.5-.6-.6-.2-.1-.5-.1-.8 0 0 0 0 0-.1 0l-3.9 1.8-3.4-3.4 2-3.9c.1-.3.1-.5 0-.8s-.3-.5-.6-.5l-4-1.5v-4.7l4-1.5c.3-.1.5-.3.6-.5.1-.3.1-.5 0-.8l-1.8-3.9 3.4-3.4 3.9 1.6h.1c.2.1.5.1.8 0 .2 0 .4-.2.5-.5l1.5-4h4.8l1.5 4c.1.3.3.5.6.6.2.1.5.1.7 0h.1l3.7-1.8 3.4 3.4-1.8 3.9c-.1.2-.1.5 0 .8s.3.5.6.5l4 1.5zm-1.1 58.7h-3.5v-6.3h3.5zm9.2 0h-3.5v-15.3h3c-1.4 4-1.2 8.5.5 12.4zm30.1 14.9v-3.5l5.3 6.3h-6.2c.6-.8.9-1.8.9-2.8zm0-76c0-1.7 1.2-3.1 2.7-3.3h.3c1.7 0 3 1.4 3 3v18.5c0 1.5.6 2.9 1.5 4h-7.5zm0 55.5c-.7 2.5-2.1 4.8-3.8 6.5-7.3 7.3-19.8 5.3-24.2-4.2-2.7-5.7-1.5-12.6 2.9-17.1 5.9-5.9 15.4-5.9 21.3 0 3.9 4 5.3 9.6 3.8 14.8zm24.1-58h-6.1v-7.7c0-1.7 1.4-3 3-3 .8 0 1.6.3 2.2.9s.9 1.3.9 2.2z"/><path d="m19.9 12.5c-4 0-7.3 3.3-7.3 7.3s3.3 7.3 7.3 7.3c3.4 0 6.1-2.4 6.9-5.1 0-.1 0-.1.1-.2 1.5-4.6-2.2-9.3-7-9.3zm0 12.5c-2.9 0-5.3-2.4-5.3-5.3s2.4-5.3 5.3-5.3 5.3 2.4 5.3 5.3c0 3-2.3 5.3-5.3 5.3z"/><path d="m5.1 98.5h-1.6c-.6 0-1 .4-1 1s.4 1 1 1h1.6c.6 0 1-.4 1-1s-.4-1-1-1z"/><path d="m99.5 98.5h-2.6c-.6 0-1 .4-1 1s.4 1 1 1h2.6c.6 0 1-.4 1-1s-.5-1-1-1z"/><path d="m27.2 40.6h37.9c.6 0 1-.4 1-1s-.4-1-1-1h-37.9c-.6 0-1 .4-1 1s.5 1 1 1z"/><path d="m27.2 48.9h37.9c.6 0 1-.4 1-1s-.4-1-1-1h-37.9c-.6 0-1 .4-1 1s.5 1 1 1z"/><path d="m67.6 62.4c-2.4-2.4-5.4-3.6-8.7-3.6s-6.4 1.3-8.7 3.6c-7.7 7.7-2.2 21 8.7 21 3.4 0 6.5-1.4 8.7-3.6 4.8-4.9 4.8-12.7 0-17.4zm-8.7-1.6c1 0 1.9.1 2.8.4v19.7h-3.5v-20c.3-.1.5-.1.7-.1zm-7.3 3c1.3-1.3 2.8-2.2 4.6-2.7v19.7h-.6c-.4-.1-.7-.3-1.1-.4v-9.8c0-.6-.4-1-1-1h-4.8c.4-2.2 1.3-4.2 2.9-5.8zm-2.6 10.1v-2.3h3.5v7.6c-.3-.2-.6-.5-.9-.8-1.2-1.4-2.1-2.9-2.6-4.5zm17.2 4.4c-.7.7-1.6 1.3-2.5 1.8v-18.2c.9.5 1.8 1.1 2.5 1.8 4 4.1 4 10.6 0 14.6z"/></g></g></g></g></g></g></svg>