<svg id="Layer_1" enable-background="new 0 0 64 64" viewBox="0 0 64 64" xmlns="http://www.w3.org/2000/svg"><g><path d="m58 8h-13v-2c0-3.3-2.7-6-6-6h-14c-3.3 0-6 2.7-6 6v2h-13c-3.3 0-6 2.7-6 6v3c0 3.3 2.7 6 6 6h1.2l2.8 35.1c0 3.3 2.7 5.9 6 5.9h32c3.3 0 6-2.6 6-5.9l2.8-35.1h1.2c3.3 0 6-2.7 6-6v-3c0-3.3-2.7-6-6-6zm-35-2c0-1.1.9-2 2-2h14c1.1 0 2 .9 2 2v2h-18zm27 51.8v.2c0 1.1-.9 2-2 2h-32c-1.1 0-2-.9-2-2 0-.1 0-.1 0-.2l-2.8-34.8h41.7zm10-40.8c0 1.1-.9 2-2 2h-52c-1.1 0-2-.9-2-2v-3c0-1.1.9-2 2-2h52c1.1 0 2 .9 2 2z"/><path d="m32 57c1.1 0 2-.9 2-2v-27c0-1.1-.9-2-2-2s-2 .9-2 2v27c0 1.1.9 2 2 2z"/><path d="m22 57c1.1 0 2-.9 2-2v-27c0-1.1-.9-2-2-2s-2 .9-2 2v27c0 1.1.9 2 2 2z"/><path d="m42 57c1.1 0 2-.9 2-2v-27c0-1.1-.9-2-2-2s-2 .9-2 2v27c0 1.1.9 2 2 2z"/></g></svg>