<svg id="Layer_1" enable-background="new 0 0 512 512" viewBox="0 0 512 512" xmlns="http://www.w3.org/2000/svg"><g fill="rgb(0,0,0)"><path d="m332.18 61.95c5.52 0 10-4.48 10-10s-4.48-10-10-10h-252.89c-18.36 0-33.29 14.94-33.29 33.29v41.94 342.87c0 5.52 4.48 10 10 10h276.18c5.52 0 10-4.48 10-10v-342.87c0-5.52-4.48-10-10-10h-48.58v-45.23zm-10 388.1h-256.18v-322.87h76.67v92.94c0 3.68 2.02 7.06 5.27 8.81 3.24 1.74 7.18 1.56 10.25-.47l35.91-23.75 35.9 23.75c1.67 1.1 3.59 1.66 5.52 1.66 1.62 0 3.25-.4 4.73-1.19 3.24-1.74 5.27-5.13 5.27-8.81v-92.94h76.67v322.87zm-159.51-322.87h62.85v74.34l-25.91-17.14c-1.67-1.11-3.59-1.66-5.52-1.66s-3.84.55-5.52 1.66l-25.91 17.14v-74.34zm100.93-20h-28.08-82.85-86.67v-31.94c0-7.33 5.96-13.29 13.29-13.29h184.31z"/><path d="m96.8 299.06c0 5.52 4.48 10 10 10h174.58c5.52 0 10-4.48 10-10s-4.48-10-10-10h-174.58c-5.52 0-10 4.48-10 10z"/><path d="m281.38 337.06h-174.58c-5.52 0-10 4.48-10 10s4.48 10 10 10h174.58c5.52 0 10-4.48 10-10s-4.48-10-10-10z"/><path d="m281.38 385.06h-174.58c-5.52 0-10 4.48-10 10s4.48 10 10 10h174.58c5.52 0 10-4.48 10-10s-4.48-10-10-10z"/><path d="m465.69 393.14c.04-.18.09-.36.13-.54s.06-.37.08-.55c.02-.14.04-.27.05-.41.02-.23.03-.46.03-.69 0-.08.01-.16.01-.24v-.17c0-.01 0-.02 0-.03v-338.56c0-5.52-4.48-10-10-10h-55.42c-5.52 0-10 4.48-10 10v338.56.03.17c0 .08.01.16.01.24.01.23.01.46.03.69.01.14.03.27.05.41.02.18.05.37.08.55.04.18.08.36.13.54.03.13.06.27.1.4.06.22.14.43.22.64.03.08.05.16.08.24l.07.17c0 .01 0 .01.01.02l27.63 69.15c1.52 3.8 5.2 6.29 9.29 6.29s7.77-2.49 9.29-6.29l27.63-69.15c0-.01 0-.01.01-.02l.07-.17c.03-.08.05-.16.08-.24.08-.21.16-.43.22-.64.06-.13.09-.26.12-.4zm-55.11-272.67h35.42v260.24h-35.42zm35.42-58.52v38.52h-35.42v-38.52zm-17.71 371.15-12.94-32.39h25.88z"/></g></svg>