<svg height="24" viewBox="0 0 24 24" width="24" xmlns="http://www.w3.org/2000/svg" xmlns:sketch="http://www.bohemiancoding.com/sketch/ns"><g id="miu" fill="none" fill-rule="evenodd"><g id="Artboard-1" transform="translate(-359 -227)"><g id="slice" transform="translate(215 119)"/><path id="editor-document-file-2-outline-stroke" d="m363 228.488889c0-.488889.484848-.488889.484848-.488889h11.151516l4.363636 4.4v17.111111c0 .488889-.484848.488889-.484848.488889h-15.030304s-.484848 0-.484848-.489486zm1 20.511111v-20h10v3c0 1 1 1 1 1h3v16zm2-18v1h6v-1zm0 3v1h10v-1zm0 3v1h10v-1zm0 3v1h10v-1zm0 4h10v-1h-10zm0 3h10v-1h-10z" fill="#000"/></g></g></svg>