<svg id="Layer_1" enable-background="new 0 0 512 512" viewBox="0 0 512 512" xmlns="http://www.w3.org/2000/svg"><g clip-rule="evenodd" fill-rule="evenodd"><g><path d="m157.14 279.74 27.82-5.53c15.42.04 28.07-9.73 28.02 5.69v126.76c-.03 9.16-4.46 17.28-11.29 22.35l-76.5 59.43c-12.17 9.46-29.71 7.26-39.17-4.91s-7.26-29.71 4.91-39.17l66.21-51.44z" fill="#6bd9e7"/><ellipse cx="389.82" cy="139.07" fill="#ffdec2" rx="42.79" ry="42.79" transform="matrix(.707 -.707 .707 .707 15.841 316.376)"/><path d="m346.26 185.18c6.57 12.48 5.28 23.16 5.28 36.49v123.27c0 13.55-10.98 24.53-24.53 24.53s-24.52-10.98-24.53-24.53l-.02-88.26-67.72 48.47 36.33 29.92c5.08 4.18 8.54 9.95 9.75 16.42l20.49 109.64c2.84 15.18-7.16 29.79-22.34 32.63s-29.79-7.16-32.63-22.34l-18.63-99.71-66.5-54.76c-26.74-22.66-22.1-71.61 11.85-93.69l106.57-69.32c17.9-11.65 42.44-14.73 55.23 9.57z" fill="#a6e7f0"/></g><g><path d="m271.03 102.6c2.21-2.21 3.58-5.25 3.58-8.6v-63.88c0-3.35-1.37-6.39-3.58-8.6s-5.25-3.58-8.6-3.58h-110.22v88.24h110.23c3.34 0 6.39-1.37 8.59-3.58z" fill="#9facba"/><path d="m275.9 44.81h18.91c3.02 0 5.48 2.46 5.48 5.48v23.55c0 3.02-2.46 5.48-5.48 5.48h-18.91z" fill="#9facba"/><path d="m115.92 32.06v60.01c0 9.05 7.38 16.44 16.44 16.44h23.56v-92.89h-23.56c-9.05 0-16.44 7.38-16.44 16.44z" fill="#f79595"/></g><path d="m347.07 217.68c-.03 1.84-.06 128.94-.06 128.94 0 10.77-8.76 19.53-19.52 19.53-10.77 0-19.53-8.76-19.54-19.53l-.01-112.99c0-2.76-2.24-5-5-5-2.77 0-5 2.24-5 5v22.16l-65.64 46.98c-1.26.91-2.03 2.35-2.08 3.9-.06 1.55.61 3.04 1.81 4.03l36.34 29.92c4.18 3.44 7.02 8.23 8.01 13.48l20.48 109.64c1.13 6.03-.16 12.13-3.62 17.2-3.46 5.06-8.69 8.47-14.72 9.59-12.45 2.33-24.47-5.89-26.8-18.34l-18.63-99.7c-.21-1.16-.83-2.2-1.73-2.95l-66.45-54.71c-10.78-9.15-16.39-23.6-15.37-39.65 1.19-18.72 11.17-35.93 26.71-46.04l106.58-69.31c8.04-5.23 16.46-8 24.01-8 2.39 0 4.7.28 6.88.85 7.2 1.88 12.98 6.87 17.19 14.86l11.39 21.65c5.04 9.57 4.92 17.91 4.77 28.49zm-139.83 190.65v-45.69l-45.84-37.75v69.71c0 1.55-.72 3.01-1.94 3.95l-66.21 51.44c-4.83 3.76-7.91 9.17-8.67 15.25-.76 6.07.89 12.08 4.64 16.91 7.76 9.98 22.18 11.78 32.16 4.03l76.5-59.43c.03-.03.06-.05.09-.07 5.87-4.35 9.25-11.04 9.27-18.35zm132.52-245.44c-5.49-10.43-13.62-17.3-23.52-19.88-11.75-3.06-25.91.02-38.87 8.45l-106.57 69.3c-18.18 11.82-29.85 31.93-31.24 53.79-.98 15.43 3.27 29.71 11.84 40.57v77.04l-64.28 49.94c-6.95 5.39-11.37 13.17-12.47 21.89-1.09 8.73 1.28 17.35 6.68 24.3 6.48 8.33 16.2 12.7 26.02 12.7 7.06 0 14.17-2.26 20.16-6.91l76.47-59.41c8.28-6.17 13.23-16 13.26-26.33v-37.47l6.36 5.24 18.29 97.92c2.97 15.83 16.84 26.9 32.39 26.9 2 0 4.04-.18 6.08-.57 8.65-1.62 16.16-6.51 21.13-13.78 4.97-7.26 6.82-16.03 5.2-24.68l-20.48-109.64c-1.42-7.56-5.5-14.44-11.49-19.36l-31.31-25.78 54.53-39.03.01 78.54c.01 16.28 13.27 29.52 29.54 29.52 16.28 0 29.52-13.25 29.52-29.53 0 0 .03-127 .06-128.8.15-11.04.3-21.47-5.92-33.29zm-221.2-130.44c0-6.31 5.13-11.44 11.44-11.44h18.55v82.89h-18.55c-6.31 0-11.44-5.13-11.44-11.44zm149.97 0v60.01c0 6.31-5.13 11.44-11.43 11.44h-98.55v-82.89h98.55c6.3 0 11.43 5.13 11.43 11.44zm23.91 17.75c.26 0 .48.23.48.48v23.55c0 .25-.22.48-.48.48h-13.91v-24.51zm-162.44 63.69h127.1c11.82 0 21.43-9.62 21.43-21.44v-7.75h13.91c5.78 0 10.48-4.7 10.48-10.48v-23.54c0-5.77-4.7-10.48-10.48-10.48h-13.91v-7.75c0-11.82-9.61-21.44-21.43-21.44h-127.1c-11.82 0-21.44 9.62-21.44 21.44v60.01c0 11.82 9.62 21.43 21.44 21.43zm259.81 62.25c-20.83 0-37.79-16.95-37.79-37.79 0-20.83 16.96-37.79 37.79-37.79 20.84 0 37.79 16.96 37.79 37.79s-16.95 37.79-37.79 37.79zm0-85.58c-26.35 0-47.79 21.44-47.79 47.79s21.44 47.79 47.79 47.79 47.79-21.44 47.79-47.79-21.44-47.79-47.79-47.79z" fill="#333"/></g></svg>