<svg id="Capa_1" enable-background="new 0 0 596.447 596.447" height="512" viewBox="0 0 596.447 596.447" width="512" xmlns="http://www.w3.org/2000/svg"><g><g><path d="m269.779 462.518c-127.516 0-231.259-103.742-231.259-231.259 0-127.516 103.742-231.259 231.259-231.259s231.259 103.743 231.259 231.259c0 127.517-103.742 231.259-231.259 231.259zm0-444.444c-117.551 0-213.185 95.634-213.185 213.185s95.634 213.185 213.185 213.185 213.185-95.634 213.185-213.185-95.635-213.185-213.185-213.185z"/></g><g><path d="m269.779 449.504c-22.206 0-41.281-24.061-55.165-69.582-12.679-41.575-19.662-96.682-19.662-155.17s6.983-113.595 19.662-155.17c13.884-45.521 32.959-69.582 55.165-69.582s41.282 24.061 55.165 69.582c12.68 41.575 19.662 96.681 19.662 155.17s-6.982 113.595-19.662 155.17c-13.884 45.521-32.96 69.582-55.165 69.582zm0-431.43c-9.939 0-25.108 14.916-37.877 56.781-12.172 39.912-18.876 93.147-18.876 149.897s6.704 109.985 18.876 149.898c12.768 41.864 27.938 56.78 37.877 56.78s25.109-14.916 37.877-56.782c12.172-39.911 18.877-93.146 18.877-149.897s-6.704-109.985-18.877-149.897c-12.768-41.864-27.938-56.78-37.877-56.78z"/></g><g><path d="m491.82 240.296h-444.353c-4.991 0-9.037-4.046-9.037-9.037s4.046-9.037 9.037-9.037h444.353c4.991 0 9.037 4.046 9.037 9.037s-4.046 9.037-9.037 9.037z"/></g><g><path d="m261.015 167.025c-26.486 0-52.614-2.047-78.09-6.131-68.351-10.958-107.998-32.601-109.652-33.517-4.367-2.417-5.947-7.917-3.529-12.284 2.415-4.363 7.909-5.944 12.274-3.533.384.212 39.142 21.258 104.645 31.628 60.389 9.558 156.573 11.742 271.846-32.162 4.665-1.776 9.886.565 11.661 5.229 1.777 4.664-.565 9.885-5.229 11.662-52.685 20.065-105.994 32.554-158.444 37.119-15.236 1.326-30.418 1.989-45.482 1.989z"/></g><g><path d="m461.635 351.273c-1.07 0-2.158-.191-3.216-.594-115.225-43.902-211.387-41.723-271.766-32.161-65.493 10.37-104.25 31.416-104.634 31.627-4.37 2.408-9.864.82-12.275-3.544-2.411-4.366-.834-9.856 3.529-12.272 1.654-.917 41.3-22.56 109.641-33.516 39.958-6.407 81.526-7.801 123.547-4.143 52.436 4.565 105.727 17.055 158.393 37.12 4.664 1.777 7.004 6.999 5.228 11.662-1.374 3.605-4.806 5.821-8.447 5.821z"/></g><g><path d="m292.509 503.077c-18.023 0-36.519-1.697-55.418-5.096-3.026-.544-5.567-2.588-6.746-5.427-1.18-2.839-.835-6.082.914-8.61l25.395-36.69c2.841-4.104 8.47-5.126 12.574-2.288 4.104 2.841 5.128 8.471 2.288 12.574l-17.208 24.862c75.467 10.2 141.563-8.757 196.662-56.436 42.536-36.805 62.8-78.354 64.272-81.449 37.164-93.715 32.697-176.101-13.283-244.865-34.528-51.637-80.874-76.018-81.338-76.258-4.428-2.293-6.169-7.742-3.881-12.173 2.287-4.432 7.728-6.175 12.161-3.893 2.042 1.051 50.433 26.368 87.62 81.587 21.901 32.521 35.289 68.66 39.794 107.414 5.594 48.134-2.607 100.323-24.376 155.117-.056.143-.117.286-.182.427-.864 1.885-21.683 46.636-68.391 87.269-27.514 23.934-58.324 41.421-91.576 51.972-25.117 7.97-51.641 11.963-79.281 11.963zm231.031-154.968h.012z"/></g><g><path d="m292.462 550.448c-4.991 0-9.037-4.046-9.037-9.037v-47.354c0-4.991 4.046-9.037 9.037-9.037s9.038 4.046 9.038 9.037v47.354c0 4.991-4.047 9.037-9.038 9.037z"/></g><g><path d="m354.818 596.447h-124.712c-4.991 0-9.037-4.046-9.037-9.037v-5.784c0-27.158 22.094-49.252 49.252-49.252h44.282c27.158 0 49.252 22.094 49.252 49.252v5.784c-.001 4.991-4.047 9.037-9.037 9.037zm-115.506-18.074h106.3c-1.632-15.669-14.916-27.925-31.009-27.925h-44.282c-16.093 0-29.377 12.257-31.009 27.925z"/></g></g></svg>