<svg id="Flat" height="512" viewBox="0 0 64 64" width="512" xmlns="http://www.w3.org/2000/svg" xmlns:xlink="http://www.w3.org/1999/xlink"><linearGradient id="linear-gradient" gradientUnits="userSpaceOnUse" x1="4" x2="60" y1="32" y2="32"><stop offset="0" stop-color="#7f00ff"/><stop offset="1" stop-color="#e100ff"/></linearGradient><path d="m36.86 31.86v-22.86a5.00824 5.00824 0 0 0 -5-5h-22.86a5.00181 5.00181 0 0 0 -5 5v22.86a5.00824 5.00824 0 0 0 5 5h22.86a5.0147 5.0147 0 0 0 5-5zm-8.76-14.62h-2.14a17.29562 17.29562 0 0 1 -4.03 6.62 15.23247 15.23247 0 0 0 5.37 2.68.99457.99457 0 1 1 -.52 1.92 17.25674 17.25674 0 0 1 -6.34-3.23 17.41876 17.41876 0 0 1 -6.36 3.23.9959.9959 0 1 1 -.53-1.92 15.27728 15.27728 0 0 0 5.38-2.68 17.34834 17.34834 0 0 1 -4.03-6.62h-2.15a1 1 0 0 1 0-2h6.68v-1.88a1.00017 1.00017 0 0 1 2 .00006v1.87994h3.64c.01288-.00616 2.90039.00348 3.0299 0a1.00016 1.00016 0 0 1 .0001 2zm-11.08 0h6.81a15.54922 15.54922 0 0 1 -3.4 5.29 15.22916 15.22916 0 0 1 -3.41-5.29zm37.98 9.9h-16.14v4.72a7.00771 7.00771 0 0 1 -7 7h-4.72v16.14a5.00824 5.00824 0 0 0 5 5h22.86a5.00181 5.00181 0 0 0 5-5v-22.86a5.00824 5.00824 0 0 0 -5-5zm-4.59 24.41a1.0041 1.0041 0 0 1 -1.32-.49l-1.88-4.13h-7.28l-1.88 4.13a.98871.98871 0 0 1 -1.32.49.99925.99925 0 0 1 -.5-1.32l6.43-14.14a.99681.99681 0 0 1 1.82 0c.03.06 4.27808 9.4168 4.30994 9.46984l2.12006 4.67016a.99081.99081 0 0 1 -.5 1.32zm-6.84-12.63 2.73 6.01h-5.46zm-20.57 9.50871h-2.42871a5.00588 5.00588 0 0 1 -5-5v-2.42871a1 1 0 0 1 2 0v2.42871a3.00328 3.00328 0 0 0 3 3h2.42871a1.00019 1.00019 0 0 1 0 2zm18-32.85742h2.42871a5.00588 5.00588 0 0 1 5 5v2.42871a1 1 0 0 1 -2 0v-2.42871a3.00328 3.00328 0 0 0 -3-3h-2.42871a1.00019 1.00019 0 0 1 0-2z" fill="url(#linear-gradient)"/></svg>