<svg fill="none" height="512" viewBox="0 0 24 24" width="512" xmlns="http://www.w3.org/2000/svg"><g clip-rule="evenodd" fill="rgb(0,0,0)" fill-rule="evenodd"><path d="m6.28983 6.0572c-1.22168 1.10122-1.7265 2.89792-.62387 4.6015l5.89034 7.053c.2077.3208.6797.3208.8874 0l5.8903-7.053c1.1027-1.70358.5979-3.50028-.6238-4.6015-1.2245-1.10375-3.1174-1.4592-4.7741-.25958-.5554.40222-1.3168.40222-1.8722 0-1.65668-1.19962-3.54959-.84417-4.77407.25958zm-.70891-.77583c1.53946-1.38767 3.98588-1.8644 6.10438-.33034.1851.13407.4443.13407.6294 0 2.1185-1.53406 4.5649-1.05733 6.1044.33034 1.5423 1.3902 2.226 3.74417.8023 5.94383l-5.8904 7.0531c-.6229.9623-2.0391.9623-2.662 0l-5.89036-7.053c-1.42375-2.19976-.73999-4.55372.80228-5.94393z"/><path d="m10.1056 9.67082c.3685-.73705 1.4203-.73705 1.7888 0l1.1056 2.21118.4146-.8292c.1694-.3388.5156-.5528.8944-.5528h1.691c.2761 0 .5.2239.5.5s-.2239.5-.5.5h-1.691l-.4146.8292c-.3685.737-1.4203.737-1.7888 0l-1.1056-2.2112-.4146.8292c-.1694.3388-.5156.5528-.89442.5528h-1.69098c-.27614 0-.5-.2239-.5-.5s.22386-.5.5-.5h1.69098z"/></g></svg>