<svg id="Layer_1" height="512" viewBox="0 0 512 512" width="512" xmlns="http://www.w3.org/2000/svg" xmlns:xlink="http://www.w3.org/1999/xlink" data-name="Layer 1"><linearGradient id="linear-gradient" gradientUnits="userSpaceOnUse" x1="256" x2="256" y1="490.054" y2="165.632"><stop offset=".322" stop-color="#a163f5"/><stop offset=".466" stop-color="#b074ee"/><stop offset=".752" stop-color="#d8a1dd"/><stop offset=".898" stop-color="#efbad3"/></linearGradient><path d="m496 253.77h-54.125c34.186-47.525 30.354-115.067-11.506-158.1a116.285 116.285 0 0 0 -167.612 0l-14.764 15.177-15.193-15.177a116.285 116.285 0 0 0 -167.613 0c-41.859 43.03-45.687 110.575-11.504 158.1h-37.683a6 6 0 0 0 0 12h47.547c.543.579 1.086 1.159 1.641 1.73l177.712 182.684c.025.025.052.045.076.07.01.01.017.023.028.033s.041.03.06.048a5.95 5.95 0 0 0 .85.682c.028.018.056.033.084.051a6.021 6.021 0 0 0 .953.493c.025.01.05.017.074.027a5.992 5.992 0 0 0 1.034.3c.015 0 .03 0 .045.006a6.027 6.027 0 0 0 1.1.1 6.016 6.016 0 0 0 1.143-.111c.126-.025.246-.076.371-.108a6.174 6.174 0 0 0 .737-.221c.149-.061.287-.15.432-.223a5.808 5.808 0 0 0 .607-.325c.147-.1.277-.221.416-.331a5.882 5.882 0 0 0 .477-.38c.018-.018.029-.039.047-.056s.039-.029.056-.047l178.879-182.692c.556-.571 1.1-1.151 1.641-1.73h63.99a6 6 0 1 0 0-12zm-248.789 183.64-166.965-171.64h114.093a8.716 8.716 0 0 0 8.238-5.935l17.48-51.4 34.469 77.718a8.645 8.645 0 0 0 7.69 5.194h.268a8.635 8.635 0 0 0 7.712-4.719l28.992-56.007 17.829 30.788a8.723 8.723 0 0 0 7.521 4.355h90.731zm179.43-183.64h-100.184l-19.911-34.382a8.674 8.674 0 0 0 -15.241.365l-28.599 55.247-35.1-79.15a8.683 8.683 0 0 0 -16.19.736l-19.451 57.184h-123.047c-36.647-43.029-35.028-108.715 4.872-149.732a104.288 104.288 0 0 1 150.47.061l19.554 19.535c.01.009.021.015.031.024s.016.022.026.032c.137.133.294.232.44.349a6.126 6.126 0 0 0 .482.383c.159.1.33.174.5.26a5.728 5.728 0 0 0 .552.281c.17.068.347.1.521.155a5.938 5.938 0 0 0 .593.166c.177.033.357.035.535.052a5.964 5.964 0 0 0 .611.049c.181 0 .359-.034.54-.052a5.819 5.819 0 0 0 .6-.066 5.582 5.582 0 0 0 .536-.159 5.733 5.733 0 0 0 .572-.178c.177-.073.341-.179.512-.27a5.845 5.845 0 0 0 .527-.286c.16-.108.3-.248.456-.374s.312-.229.453-.37c.01-.01.016-.023.027-.033s.02-.015.028-.024l19-19.535a104.286 104.286 0 0 1 150.41 0c39.905 41.021 41.52 106.716 4.875 149.732z" fill="url(#linear-gradient)"/></svg>