<svg fill="none" height="512" viewBox="0 0 24 24" width="512" xmlns="http://www.w3.org/2000/svg"><g clip-rule="evenodd" fill="rgb(0,0,0)" fill-rule="evenodd"><path d="m4.2403 6.27639c.53271-1.06543 1.59504-1.77639 3.2597-1.77639.27614 0 .5.22386.5.5s-.22386.5-.5.5c-1.33534 0-2.02299.53904-2.36528 1.22361-.36557.73114-.38265 1.72307-.14965 2.65513.06697.2679-.09591.53936-.36381.60633-.2679.06693-.53936-.09591-.60633-.36381-.26697-1.06794-.28406-2.32602.22537-3.34487z"/><path d="m20.2072 4.49066c.7688.6694 1.2928 1.76528 1.2928 3.50934 0 2.8097-1.3966 5.1895-3.8536 7.6464l-5.6464 5.6465-5.64645-5.6465c-.19526-.1952-.51184-.1952-.7071 0-.19526.1953-.19526.5119 0 .7072l5.99995 6c.1953.1952.5119.1952.7072 0l6-6c2.543-2.5431 4.1464-5.1633 4.1464-8.3536 0-1.95308-.5953-3.3572-1.6361-4.26351-1.0282-.89525-2.4136-1.23649-3.8639-1.23649-1.4378 0-2.556.25997-3.453.90699-.8917.64314-1.4964 1.62018-2.0112 2.90731-.1026.2564.0221.54738.2785.64994.2564.10255.5474-.02215.6499-.27854.4852-1.21287.9997-1.98583 1.6678-2.46769.6626-.47798 1.5444-.71801 2.868-.71801 1.3111 0 2.4257.31019 3.2072.99066z"/><path d="m3.79281 4.49066c-.76879.6694-1.29281 1.76528-1.29281 3.50934 0 2.8097 1.39659 5.1895 3.85355 7.6464l5.64645 5.6465 5.6464-5.6465c.1953-.1952.5119-.1952.7072 0 .1952.1953.1952.5119 0 .7072l-6 6c-.1953.1952-.5119.1952-.7072 0l-5.99995-6c-2.54304-2.5431-4.14645-5.1633-4.14645-8.3536 0-1.95308.59527-3.3572 1.63613-4.26351 1.02815-.89525 2.41359-1.23649 3.86387-1.23649 1.4378 0 2.55604.25997 3.453.90699.8917.64314 1.4964 1.62018 2.0112 2.90731.1026.2564-.0221.54738-.2785.64994-.2564.10255-.5474-.02215-.6499-.27854-.4852-1.21287-.9997-1.98583-1.66777-2.46769-.66265-.47798-1.5444-.71801-2.86803-.71801-1.31115 0-2.4257.31019-3.20719.99066z"/><path d="m10.5 10c0-.55228.4477-1 1-1h1c.5523 0 1 .44772 1 1v1.5h1.5c.5523 0 1 .4477 1 1v1c0 .5523-.4477 1-1 1h-1.5v1.5c0 .5523-.4477 1-1 1h-1c-.5523 0-1-.4477-1-1v-1.5h-1.5c-.55228 0-1-.4477-1-1v-1c0-.5523.44772-1 1-1h1.5zm2 0h-1v2.5h-2.5v1h2.5v2.5h1v-2.5h2.5v-1h-2.5z"/></g></svg>