<svg fill="none" height="512" viewBox="0 0 24 24" width="512" xmlns="http://www.w3.org/2000/svg" xmlns:xlink="http://www.w3.org/1999/xlink"><clipPath id="clip0_14_416"><path d="m0 0h24v24h-24z"/></clipPath><g clip-path="url(#clip0_14_416)" fill="#000"><path d="m20.9356 4.74788c-.0812.14562-.2342.25212-.4313.25212h-2.515c-.491 0-.8746-.10872-1.168-.28993-.5967-.36837-.8213-1.03628-.8213-1.69941v-2.515c0-.4407017.5328-.661407.8445-.349784l4.0096 4.009674c.1723.1723.1819.41224.0815.59233z"/><path d="m11.0981 10.8502c.1693-.006.3197.1249.3197.3009v1.2928c0 .1784-.1504.2993-.3053.3084-1.2674.0752-2.25537 1.0601-2.25537 2.2463 0 1.2341 1.07004 2.2508 2.41067 2.2508 1.0478 0 1.9334-.623 2.2675-1.4848l-.0026-.0003-.0024-.0001h-1.2644c-.1263 0-.2307-.0699-.2814-.1688-.0513-.1-.0461-.2287.0391-.3286l2.2849-2.6777c.1255-.1472.3589-.1472.4845 0l2.2848 2.6777c.0853.0999.0904.2286.0392.3286-.0507.0989-.1552.1688-.2814.1688h-1.2094c-.0059 0-.0105.002-.0136.0044-.0031.0025-.0039.0054-.0039.0054-.3878 1.9286-2.1896 3.376-4.3409 3.376-2.43062 0-4.41779-1.8497-4.41779-4.1514 0-2.2479 1.89561-4.0649 4.24809-4.1484z"/><path clip-rule="evenodd" d="m21 7.21007c0-.08908-.0233-.17271-.0641-.24515-.0851-.15094-.2463-.25326-.4316-.25483l-.0043-.00002h-4.5c-1.1046 0-2-.89543-2-2v-3.21007c0-.27614-.2239-.5-.5-.5h-7.5c-1.65685 0-3 1.34315-3 3v17c0 1.6569 1.34315 3 3 3h12c1.6569 0 3-1.3431 3-3zm-16-3.21007c0-.55228.44772-1 1-1h6v1.71007c0 2.20914 1.7909 4 4 4h3v12.28993c0 .5523-.4477 1-1 1h-12c-.55228 0-1-.4477-1-1z" fill-rule="evenodd"/></g></svg>