<svg id="Layer_1" enable-background="new 0 0 512 512" viewBox="0 0 512 512" xmlns="http://www.w3.org/2000/svg"><path d="m510.1 346.6c-.4-2.8-2.4-5.1-5.1-5.8l-20.2-5.6c-1.3-3.8-2.9-7.7-4.7-11.2l10.3-18.2c1.4-2.4 1.2-5.5-.5-7.7-11.2-14.7-19.1-22.6-33.8-33.8-2.2-1.7-5.3-1.9-7.7-.5l-18.1 10.2c-2-1-4.1-1.9-6.2-2.7 3-14.3 4.5-28.9 4.5-43.6 0-58.6-23.7-111.8-62-150.6-.2-.3-.5-.6-.7-.9-.3-.3-.6-.5-.8-.7-38.8-38.4-92-62.1-150.8-62.1-58.7 0-112 23.8-150.8 62.1-.3.2-.6.4-.8.7-.3.3-.5.6-.7.9-38.3 38.7-62 91.9-62 150.6 0 57.3 22.3 111.1 62.8 151.6s94.3 62.8 151.5 62.8c22.1 0 43.7-3.3 64.4-9.9l-1.7 3.1c-1.4 2.4-1.2 5.5.5 7.7 10.9 14.3 19.5 22.8 33.8 33.8 2.2 1.7 5.3 1.9 7.7.5l18.2-10.3c3.7 1.8 7.4 3.3 11.3 4.7l5.6 20.1c.8 2.7 3 4.7 5.8 5.1 9.4 1.2 16.6 1.9 23.9 1.9s14.5-.6 23.9-1.9c2.8-.4 5.1-2.4 5.8-5.1l5.6-20.2c3.9-1.3 7.6-2.9 11.2-4.7l18.2 10.3c2.4 1.4 5.5 1.2 7.7-.5 14.7-11.3 22.6-19.1 33.8-33.8 1.7-2.2 1.9-5.3.5-7.7l-10.2-18.2c1.8-3.7 3.3-7.4 4.7-11.3l20.1-5.6c2.7-.7 4.7-3 5.1-5.8 2.4-18.7 2.4-29-.1-47.7zm-233.1-40.9 5.6 9.8c-19.8-6.7-40.5-10.4-61.3-11v-69.9h105.4c-.2 10.8-.9 21.6-2.1 32.1l-5.5-3.1c-2.4-1.4-5.5-1.2-7.7.5-14.4 11-22.9 19.5-33.8 33.8-1.7 2.3-2 5.3-.6 7.8zm-19.6 88.6c.4 2.8 2.4 5.1 5.1 5.8l6.8 1.9c-14.8 15-31.1 23.7-48 25.5v-108.8c21.3.6 42.5 4.7 62.9 12.2-.5 1.4-1.1 2.8-1.6 4.2l-20.2 5.6c-2.7.8-4.7 3-5.1 5.8-2.4 18.8-2.4 29.1.1 47.8zm-190.5-31.1c-31.4-34.1-51.1-79-52.8-128.5h73.8c.7 35.6 6.4 69.8 16.6 100-13.4 8-26.1 17.5-37.6 28.5zm1-272.1c11.5 10.7 23.9 20.1 37.2 27.9-10.6 30.6-16.5 65.3-17.2 101.6h-73.8c1.8-49.9 21.9-95.3 53.8-129.5zm292.8 0c31.9 34.2 52 79.6 53.8 129.5h-73.8c-.7-36.3-6.6-71-17.2-101.6 13.3-7.8 25.8-17.1 37.2-27.9zm-34 129.6h-105.4v-72.2c31.7-1 62.2-8.8 89.7-22.6 9.6 28.5 15 60.9 15.7 94.8zm-105.4-86.2v-106.7c26.7 3 51.8 22.9 71.4 56.8 5 8.7 9.5 18.1 13.5 28-26 13.4-54.8 20.9-84.9 21.9zm-14-106.7v106.7c-30.1-1-58.9-8.5-84.9-21.9 4-9.9 8.5-19.3 13.5-28 19.6-34 44.7-53.9 71.4-56.8zm0 120.7v72.2h-105.4c.7-33.9 6.1-66.2 15.6-94.8 27.6 13.8 58.1 21.6 89.8 22.6zm-105.4 86.2h105.4v69.9c-11.8.4-23.7 1.8-35.5 4.2-19.2 3.9-37.6 10.3-54.8 19.1-9.2-28.3-14.4-60-15.1-93.2zm105.4 84.1v108.8c-26.7-3-51.8-22.9-71.4-56.8-5.3-9.1-10-19-14.1-29.5 26.6-13.7 55.8-21.4 85.5-22.5zm133.4-84.1h73.8c-.2 4.8-.5 9.7-1 14.5-.8-2.7-3-4.7-5.8-5-18.1-2.4-29.7-2.4-47.7 0-2.8.4-5.1 2.4-5.8 5.1l-5.6 20.2c-3.6 1.3-7.2 2.7-10.6 4.4 1.5-13 2.5-26.1 2.7-39.2zm10.1-153.5c-10 9.3-20.8 17.5-32.3 24.5-4-9.9-8.6-19.3-13.7-28.1-10.1-17.5-21.6-31.6-34.2-42.1 30.4 8.8 57.7 24.7 80.2 45.7zm-227-3.6c-5.1 8.8-9.6 18.2-13.7 28.1-11.5-7-22.3-15.2-32.3-24.5 22.5-21 49.9-36.9 80.2-45.8-12.6 10.6-24.1 24.7-34.2 42.2zm-47 295.5c10.1-9.5 21.1-17.9 32.8-25 4.2 10.5 8.9 20.4 14.2 29.6 10.1 17.5 21.6 31.6 34.2 42.2-30.8-9-58.5-25.3-81.2-46.8zm206.5 34.5c.9 2.4 1.8 4.8 2.9 7.1-5.2 2-10.4 3.8-15.8 5.3 4.5-3.7 8.8-7.8 12.9-12.4zm213.5-19.7-19.3 5.3c-2.3.6-4.1 2.4-4.8 4.7-1.7 5.5-3.9 10.9-6.6 16-1.1 2.1-1.1 4.6.1 6.7l9.8 17.4c-8.1 10.2-14.5 16.6-24.7 24.7l-17.4-9.8c-2.1-1.2-4.6-1.2-6.7-.1-5 2.7-10.4 4.9-16 6.6-2.3.7-4 2.5-4.7 4.8l-5.4 19.3c-13.2 1.6-21.7 1.6-34.9 0l-5.4-19.3c-.6-2.3-2.4-4.1-4.7-4.8-5.5-1.7-10.8-3.9-15.9-6.6-2.1-1.1-4.6-1.1-6.7.1l-17.4 9.8c-10-7.9-16.8-14.7-24.7-24.7l2.1-3.7c2.6-4.6 5.2-9.2 7.8-13.7 1.2-2.1 1.2-4.6.1-6.7-2.7-5.1-4.9-10.5-6.6-16-.7-2.3-2.5-4-4.8-4.7l-5.6-1.6c-.3-.1-.5-.2-.8-.2l-12.9-3.6c-1.6-13.2-1.6-21.7 0-34.9l19.3-5.4c2.3-.6 4.1-2.4 4.8-4.7 1.7-5.5 3.9-10.9 6.6-16 1.1-2.1 1.1-4.6-.1-6.7l-9.8-17.4c7.9-10 14.6-16.7 24.7-24.7l17.4 9.8c2.1 1.2 4.6 1.2 6.7.1 5-2.7 10.4-4.9 15.9-6.6 2.3-.7 4.1-2.5 4.7-4.8l5.4-19.3c12.8-1.5 22.1-1.5 34.9 0l5.4 19.3c.6 2.3 2.4 4.1 4.7 4.8 5.5 1.7 10.9 3.9 16 6.6 2.1 1.1 4.6 1.1 6.7-.1l17.4-9.8c10.2 8.1 16.6 14.4 24.7 24.7l-9.8 17.4c-1.2 2.1-1.2 4.6-.1 6.7 2.6 4.8 4.9 10.5 6.6 16 .7 2.3 2.5 4 4.8 4.7l19.3 5.4c1.5 13.3 1.5 21.8-.1 35zm-113-82c-35.6 0-64.5 29-64.5 64.5 0 35.6 29 64.5 64.5 64.5 35.6 0 64.5-29 64.5-64.5s-28.9-64.5-64.5-64.5zm0 115.1c-27.9 0-50.5-22.7-50.5-50.5 0-27.9 22.7-50.5 50.5-50.5 27.9 0 50.5 22.7 50.5 50.5s-22.6 50.5-50.5 50.5z"/></svg>