<svg id="Layer_1" height="512" viewBox="0 0 512 512" width="512" xmlns="http://www.w3.org/2000/svg" xmlns:xlink="http://www.w3.org/1999/xlink" data-name="Layer 1"><linearGradient id="GradientFill_2" gradientUnits="userSpaceOnUse" x1="255.976" x2="255.976" y1=".248" y2="511.799"><stop offset="0" stop-color="#1fbbee"/><stop offset="1" stop-color="#4764af"/></linearGradient><path d="m486.49 300.476a12 12 0 0 0 -13.848 1.083 184.572 184.572 0 0 1 -70.995 36.762c-99.136 26.562-201.4-32.479-227.966-131.616a186.564 186.564 0 0 1 36.767-167.315 12 12 0 0 0 -11.648-19.426c-4.955 1.019-9.8 2.161-14.387 3.392a248.4 248.4 0 0 0 -59.91 455.058 246.926 246.926 0 0 0 123.8 33.386 248.613 248.613 0 0 0 243.78-198.609 12 12 0 0 0 -5.593-12.715zm-179.7 179.57a223.9 223.9 0 0 1 -58.028 7.672c-99.068-.006-189.975-66.211-216.806-166.347a224.436 224.436 0 0 1 140.216-269.044 210.588 210.588 0 0 0 -21.672 160.59c25.127 93.776 110.244 155.774 203.022 155.77a211.382 211.382 0 0 0 106.167-28.772 223.146 223.146 0 0 1 -152.9 140.131zm199.4-333.157-58.4-37.135 32.01-61.362a12 12 0 0 0 -16.194-16.192l-61.363 32.017-37.135-58.406a12 12 0 0 0 -22.115 5.926l-2.956 69.148-69.148 2.957a12 12 0 0 0 -5.926 22.115l58.4 37.134-32.013 61.362a12 12 0 0 0 16.19 16.19l61.363-32.014 37.133 58.406a12 12 0 0 0 22.116-5.926l2.956-69.148 69.155-2.961a12 12 0 0 0 5.925-22.115zm-87.106 1.565a12 12 0 0 0 -11.477 11.476l-1.8 42.008-22.559-35.482a12 12 0 0 0 -15.678-4.2l-37.28 19.45 19.448-37.279a12 12 0 0 0 -4.2-15.677l-35.483-22.561 42.01-1.8a12 12 0 0 0 11.477-11.476l1.8-42.01 22.558 35.487a12 12 0 0 0 15.677 4.2l37.28-19.45-19.447 37.28a12 12 0 0 0 4.2 15.677l35.484 22.56z" fill="url(#GradientFill_2)"/></svg>