<?xml version="1.0" encoding="iso-8859-1"?>
<!-- Generator: Adobe Illustrator 16.0.0, SVG Export Plug-In . SVG Version: 6.00 Build 0)  -->
<!DOCTYPE svg PUBLIC "-//W3C//DTD SVG 1.1//EN" "http://www.w3.org/Graphics/SVG/1.1/DTD/svg11.dtd">
<svg version="1.1" id="Capa_1" xmlns="http://www.w3.org/2000/svg" xmlns:xlink="http://www.w3.org/1999/xlink" x="0px" y="0px"
	 width="330.386px" height="330.386px" viewBox="0 0 330.386 330.386" style="enable-background:new 0 0 330.386 330.386;"
	 xml:space="preserve">
<g>
	<path d="M316.828,272.059c2.516-3.111,2.368-7.604-0.332-10.557c-2.716-2.953-7.166-3.486-10.494-1.239
		c-15.313,10.31-33.196,15.762-51.717,15.762c-51.131,0-92.728-41.597-92.728-92.723c0-51.134,41.597-92.729,92.728-92.729
		c18.521,0,36.403,5.453,51.717,15.763c1.382,0.928,2.959,1.382,4.52,1.382c0.037,0,0.068,0,0.116,0c4.472,0,8.1-3.628,8.1-8.101
		c0-2.359-1.007-4.477-2.61-5.961c-27.031-32.988-66.872-51.883-109.487-51.883c-78.031,0-141.521,63.486-141.521,141.528
		c0,78.036,63.49,141.523,141.521,141.523C249.618,324.819,289.786,305.588,316.828,272.059z M206.63,308.62
		c-69.101,0-125.321-56.221-125.321-125.323c0-69.109,56.221-125.329,125.321-125.329c22.976,0,45.035,6.199,64.193,17.653
		c-5.442-0.828-10.964-1.248-16.538-1.248c-60.064,0-108.928,48.864-108.928,108.928c0,60.06,48.863,108.923,108.928,108.923
		c5.574,0,11.101-0.422,16.538-1.244C251.665,302.424,229.605,308.62,206.63,308.62z"/>
	<path d="M330.202,157.473c-0.775-4.251-4.108-9.65-15.642-11.222l-13.784-1.877l-2.474-13.685
		c-2.483-13.758-10.172-15.237-13.368-15.237c-5.621,0-10.341,3.871-14.021,11.507l-6.049,12.526l-13.785-1.877
		c-13.136-1.798-17.054,4.029-18.367,7.307c-1.524,3.789-1.656,9.919,6.354,17.587l10.051,9.621l-6.043,12.529
		c-3.391,7.024-3.718,12.788-0.991,17.139c3.702,5.886,11.464,7.072,20.956,1.978l12.261-6.581l10.041,9.619
		c4.625,4.424,8.934,6.581,13.173,6.581h0.006c3.396,0,6.449-1.424,8.605-3.992c2.985-3.58,3.823-8.701,2.563-15.667l-2.474-13.69
		l12.261-6.586C329.728,167.94,330.961,161.723,330.202,157.473z M289.18,171.336l3.654,20.219l-14.828-14.207l-18.114,9.725
		l8.928-18.521l-14.834-14.207l20.36,2.771l8.923-18.504l3.654,20.226l20.366,2.771L289.18,171.336z"/>
	<path d="M18.674,172.148c6.486-4.717,11.746-8.535,11.746-8.535l11.744,8.535c6.486,4.715,9.737,2.352,7.259-5.279
		c-2.479-7.625-4.487-13.808-4.487-13.808l11.744-8.533c6.486-4.714,5.245-8.533-2.769-8.533c-8.016,0-14.52,0-14.52,0
		l-4.488-13.806c-2.479-7.625-6.497-7.625-8.975,0c-2.479,7.623-4.488,13.806-4.488,13.806H6.93c-8.019,0-9.26,3.823-2.771,8.533
		c6.492,4.709,11.747,8.533,11.747,8.533l-4.488,13.808C8.939,174.495,12.19,176.863,18.674,172.148z"/>
	<path d="M72.492,88.18l3.143-13.559l13.861-1.199c11.594-1.005,15.19-6.226,16.168-10.439c0.976-4.21,0.048-10.481-9.933-16.496
		l-11.918-7.172l3.144-13.553c1.611-6.945,0.952-12.329-1.97-16.002c-2.149-2.71-5.287-4.2-8.825-4.2
		c-4.061,0-8.271,1.943-12.889,5.946l-10.504,9.115l-11.91-7.172c-9.326-5.61-17.286-4.688-21.186,1.185
		c-2.779,4.194-2.671,9.896,0.309,16.933l5.426,12.81L14.9,53.491c-8.532,7.404-8.585,13.614-7.122,17.518
		c1.237,3.304,5.052,9.044,17.895,7.937l13.856-1.197l5.421,12.801c4.266,10.083,9.964,12.205,13.985,12.205
		C62.733,102.755,69.555,100.854,72.492,88.18z M57.874,79.513l-8.013-18.916l-20.466,1.767L44.909,48.9l-8.011-18.921
		l17.605,10.604l15.52-13.471l-4.638,20.018l17.608,10.6L62.512,59.5L57.874,79.513z"/>
</g>
<g>
</g>
<g>
</g>
<g>
</g>
<g>
</g>
<g>
</g>
<g>
</g>
<g>
</g>
<g>
</g>
<g>
</g>
<g>
</g>
<g>
</g>
<g>
</g>
<g>
</g>
<g>
</g>
<g>
</g>
</svg>
