<svg id="Layer_1" height="512" viewBox="0 0 512 512" width="512" xmlns="http://www.w3.org/2000/svg" xmlns:xlink="http://www.w3.org/1999/xlink" data-name="Layer 1"><linearGradient id="GradientFill_2" gradientUnits="userSpaceOnUse" x1="256" x2="256" y2="512"><stop offset="0" stop-color="#1fbbee"/><stop offset="1" stop-color="#4764af"/></linearGradient><path d="m364.353 171.873 21.839 13.886-25.857 1.106a8 8 0 0 0 -7.65 7.651l-1.107 25.857-13.886-21.84a8 8 0 0 0 -10.451-2.8l-22.941 11.967 11.971-22.945a8 8 0 0 0 -2.8-10.451l-21.84-13.887 25.857-1.1a8 8 0 0 0 7.651-7.651l1.1-25.856 13.886 21.839a8 8 0 0 0 10.451 2.8l22.946-11.972-11.97 22.946a8 8 0 0 0 2.801 10.45zm-113.374 138.481a134.759 134.759 0 0 1 -49.34-184.068 143.27 143.27 0 1 0 184.085 184.132 135.069 135.069 0 0 1 -134.745-.064zm261.021-54.354c0 141.158-114.841 256-256 256s-256-114.842-256-256 114.841-256 256-256 256 114.841 256 256zm-108.355 28.182a8 8 0 0 0 -9.233.722 118.8 118.8 0 0 1 -190.772-60.529 119.043 119.043 0 0 1 23.46-106.767 8 8 0 0 0 -7.762-12.951c-3.166.651-6.27 1.382-9.224 2.174a159.313 159.313 0 0 0 40.961 313.169 159.395 159.395 0 0 0 156.3-127.336 8 8 0 0 0 -3.73-8.482zm12.611-98.268-37.122-23.6 20.347-39a8 8 0 0 0 -10.793-10.793l-39 20.347-23.6-37.121a8 8 0 0 0 -14.743 3.95l-1.879 43.95-43.95 1.878a8 8 0 0 0 -3.95 14.744l37.122 23.6-20.348 39a8 8 0 0 0 10.793 10.793l39-20.348 23.6 37.122a8 8 0 0 0 14.744-3.95l1.879-43.95 43.951-1.879a8 8 0 0 0 3.95-14.743z" fill="url(#GradientFill_2)"/></svg>