<svg height="24" viewBox="0 0 24 24" width="24" xmlns="http://www.w3.org/2000/svg" xmlns:sketch="http://www.bohemiancoding.com/sketch/ns"><g id="miu" fill="none" fill-rule="evenodd"><g id="Artboard-1" transform="translate(-719 -371)"><g id="slice" transform="translate(215 119)"/><path id="editor-notebook-add-new-outline-stroke" d="m739 387.126017v-12.670711c0-.251459-.202299-.455306-.461594-.455306h-14.076812c-.254931 0-.461594.204462-.461594.455306v19.089388c0 .251459.202299.455306.461594.455306h10.892582c-.29769-.262746-.55597-.56911-.76484-.909091h-9.67505v-18.181818h13.171428v12.091809c.315069.006624.621179.049677.914286.125117zm1 .409112v-13.535129s0-1-1-1h-14l1-1h13c2 0 2 2 2 2v14.354176c-.285964-.323995-.623595-.601309-1-.819047zm-17.8 1.464871s-1.2 0-1.2 1.5 1.2 1.5 1.2 1.5h.8v-3zm0-4s-1.2 0-1.2 1.5 1.2 1.5 1.2 1.5h.8v-3zm0-5s-1.2 0-1.2 1.5 1.2 1.5 1.2 1.5h.8v-3zm0-4s-1.2 0-1.2 1.5 1.2 1.5 1.2 1.5h.8v-3zm14.8 12h2v2h2v2h-2v2h-2v-2h-2v-2h2z" fill="#000"/></g></g></svg>