<svg height="512" viewBox="0 0 64 64" width="512" xmlns="http://www.w3.org/2000/svg"><g id="Layer_41" data-name="Layer 41"><path d="m53.06 26.15-15.21-15.21a1.49 1.49 0 0 0 -2.12 0c-1.48 1.5-5 5-6.46 6.46l-10.35 3.13a1.5 1.5 0 0 0 -1 1.08c0 .05-7.37 30-7.36 30.09a1.51 1.51 0 0 0 1.82 1.76l30-7.36a1.5 1.5 0 0 0 1.08-1l3.14-10.37 6.46-6.46a1.49 1.49 0 0 0 0-2.12zm-9.22 7.35-3 9.89-24 5.88 11.53-11.52c5.32 2.89 10.5-4.07 6.25-8.37s-11.26.93-8.37 6.25l-11.52 11.52 5.88-24 9.89-3c.56-.1 1.78-1.6 2.2-1.94l13.08 13.09c-.35.42-1.84 1.64-1.94 2.2zm-14.58-2a2.29 2.29 0 0 1 3.24 3.24 2.29 2.29 0 0 1 -3.24-3.24zm18.64-2.32-13.08-13.08 2-2c3.27 3.26 9.83 9.83 13.09 13.09z"/></g></svg>