<svg fill="none" height="200" viewBox="0 0 200 200" width="200" xmlns="http://www.w3.org/2000/svg"><path clip-rule="evenodd" d="m54.7844 167.329c-1.1116 5.169 4.9715 8.799 8.9588 5.347l36.2421-31.383c.2857-.247.5017-.546.6467-.871.051-.07.1-.144.145-.222l26.839-46.1294 25.33-43.5367c1.527-2.6255.642-6.0006-1.977-7.5385l-25.908-15.2104c-2.619-1.5379-5.981-.6563-7.509 1.9693l-52.1683 89.6667c-.045.077-.0854.156-.1212.236-.2039.276-.3538.6-.4308.958zm14.5639-43.963-5.1274 23.84 12.6868 7.448 17.8371-15.445-.2481.079-2.5502-7.966-8.0799.846c-2.0297.212-3.9496-.975-4.6743-2.891l-2.6484-7.003zm2.712-5.478 4.127-.627c2.094-.317 4.1274.877 4.8795 2.865l2.655 7.02 8.1009-.848c2.1165-.222 4.1003 1.078 4.7516 3.112l1.6665 5.207 25.0632-43.0779 25.33-43.5366c.139-.2387.058-.5456-.18-.6854l-25.907-15.2104c-.238-.1398-.544-.0596-.683.1791zm-12.3967 50.507 3.4501-16.041 9.8037 5.756-12.4394 10.771c-.1262.109-.219.129-.2822.132-.0817.005-.1897-.016-.2988-.081s-.1793-.15-.2143-.225c-.027-.057-.0543-.148-.0191-.312z" fill="rgb(0,0,0)" fill-rule="evenodd"/><path d="m62.1727 171.769h97.0003" stroke="rgb(0,0,0)" stroke-linecap="round" stroke-width="5"/><path clip-rule="evenodd" d="m58.7729 173.84c-2.6152-.711-4.6753-3.317-3.9884-6.511l10.0473-46.714c.077-.358.2269-.682.4308-.958.0358-.08.0762-.159.1212-.236l52.1692-89.6667c1.527-2.6256 4.889-3.5073 7.508-1.9693l25.908 15.2104c2.619 1.5379 3.504 4.913 1.977 7.5385l-52.169 89.6661c-.045.078-.093.152-.145.222-.145.325-.361.623-.6466.871l-32.3077 27.976h91.4953c1.381 0 2.5 1.119 2.5 2.5 0 1.38-1.119 2.5-2.5 2.5h-99.0001c-.5188 0-1.0006-.158-1.4-.429zm5.4481-26.634 5.1274-23.84 7.1956-1.092 2.6484 7.003c.7246 1.916 2.6446 3.103 4.6743 2.891l8.0799-.846 2.5502 7.966.2481-.079-17.8371 15.445zm11.9664-29.945-4.127.627 49.8036-85.6023c.139-.2386.445-.3188.683-.179l25.907 15.2104c.238.1398.319.4467.18.6853l-50.3931 86.6146-1.6665-5.207c-.6513-2.034-2.6351-3.334-4.7516-3.112l-8.1009.848-2.655-7.02c-.7521-1.988-2.7855-3.182-4.8795-2.865zm-13.0736 35.093-3.4501 16.041c-.0352.164-.0079.255.0191.312.035.075.1051.16.2143.225.1091.065.2171.086.2988.081.0632-.003.156-.023.2822-.132l12.4393-10.771z" fill="rgb(0,0,0)" fill-rule="evenodd"/></svg>