<svg height="512" viewBox="0 0 24 24" width="512" xmlns="http://www.w3.org/2000/svg" xmlns:xlink="http://www.w3.org/1999/xlink"><linearGradient id="linear-gradient" gradientUnits="userSpaceOnUse" x1="12" x2="12" y1="1" y2="23"><stop offset="0" stop-color="#00efd1"/><stop offset="1" stop-color="#00acea"/></linearGradient><g id="Line_Gradient" data-name="Line Gradient"><path d="m12 1a11 11 0 1 0 11 11 11.013 11.013 0 0 0 -11-11zm0 20a9 9 0 1 1 9-9 9.01 9.01 0 0 1 -9 9zm6.707-8.293-4 4a1 1 0 0 1 -1.414-1.414l2.293-2.293h-9.586a1 1 0 0 1 0-2h9.586l-2.293-2.293a1 1 0 1 1 1.414-1.414l4 4a1 1 0 0 1 0 1.414z" fill="url(#linear-gradient)"/></g></svg>