<svg id="_x32_4.hdd" enable-background="new 0 0 195 195" height="512" viewBox="0 0 195 195" width="512" xmlns="http://www.w3.org/2000/svg" xmlns:xlink="http://www.w3.org/1999/xlink"><linearGradient id="lg1"><stop offset="0" stop-color="#c000e4"/><stop offset="1" stop-color="#1e0068"/></linearGradient><linearGradient id="SVGID_1_" gradientUnits="userSpaceOnUse" x1="29.258" x2="179.699" xlink:href="#lg1" y1="12.805" y2="163.246"/><linearGradient id="SVGID_2_" gradientUnits="userSpaceOnUse" x1="-.665" x2="149.776" xlink:href="#lg1" y1="42.727" y2="193.168"/><g id="icon_23_"><path d="m172.7 111.1c-4.5-3.6-10.2-5.8-16.4-5.8h-117.6c-6.2 0-11.9 2.2-16.4 5.8l19.4-78c.8-3.3 3.8-5.6 7.1-5.6h97.3c3.4 0 6.3 2.3 7.1 5.6z" fill="url(#SVGID_1_)"/><path d="m156.3 114.3h-117.6c-9.5 0-17.2 7.7-17.2 17.2v18.8c0 9.5 7.7 17.2 17.2 17.2h117.6c9.5 0 17.2-7.7 17.2-17.2v-18.8c0-9.5-7.7-17.2-17.2-17.2zm-29.4 31c0 1.8-1.4 3.2-3.2 3.2h-8.8c-1.8 0-3.2-1.4-3.2-3.2v-8.8c0-1.8 1.4-3.2 3.2-3.2h8.8c1.8 0 3.2 1.4 3.2 3.2zm22.8 0c0 1.8-1.4 3.2-3.2 3.2h-8.8c-1.8 0-3.2-1.4-3.2-3.2v-8.8c0-1.8 1.4-3.2 3.2-3.2h8.8c1.8 0 3.2 1.4 3.2 3.2z" fill="url(#SVGID_2_)"/></g></svg>