<svg enable-background="new 0 0 512 512" height="512" viewBox="0 0 512 512" width="512" xmlns="http://www.w3.org/2000/svg"><g><g id="Layer_1"><g><g><path d="m255.975 469.975c-57.161 0-110.901-22.26-151.32-62.679s-62.68-94.159-62.68-151.321 22.261-110.901 62.68-151.321 94.159-62.679 151.32-62.679 110.901 22.26 151.32 62.679 62.68 94.159 62.68 151.321-22.261 110.901-62.68 151.321-94.159 62.679-151.32 62.679zm0-404.38c-104.976 0-190.38 85.404-190.38 190.38s85.404 190.38 190.38 190.38 190.38-85.404 190.38-190.38-85.405-190.38-190.38-190.38zm109.025 176.155h-95v-95c0-2.761-2.238-5-5-5h-18c-2.762 0-5 2.239-5 5v95h-95c-2.762 0-5 2.239-5 5v18c0 2.761 2.238 5 5 5h95v95c0 2.761 2.238 5 5 5h18c2.762 0 5-2.239 5-5v-95h95c2.762 0 5-2.239 5-5v-18c0-2.761-2.238-5-5-5z" fill="#2aaae2"/></g></g></g><g id="Layer_2"/><g id="Layer_3"/></g></svg>