<svg id="Layer_1" enable-background="new 0 0 64 64" height="64" viewBox="0 0 64 64" width="64" xmlns="http://www.w3.org/2000/svg"><g><path d="m53.162 12.353c-.049 0-.099.004-.149.011-2.458.371-4.73.539-6.801.539-8.165 0-13.194-2.612-14.073-5.71-.075-.266-.107-.398-.141-.398s-.069.132-.151.396c-.965 3.094-6.41 5.845-14.183 5.845-2.075 0-4.317-.196-6.683-.634-.062-.011-.123-.017-.182-.017-.456 0-.799.333-.799.823v25.5c0 12.5 22 18.5 22 18.5s22-5.833 22-18v-26c0-.503-.363-.855-.838-.855zm-4.162 26.853c0 5.825-10.705 10.844-16.985 12.791-6.296-1.996-17.015-7.178-17.015-13.291v-20.763c.897.061 1.786.091 2.664.091 5.831 0 10.837-1.315 14.297-3.591 3.395 2.21 8.339 3.459 14.251 3.459.909 0 1.84-.029 2.788-.086z"/><path d="m39.937 24.479-11.092 10.91-4.769-4.77c-.781-.781-2.047-.781-2.829 0-.781.781-.781 2.047 0 2.829l7.575 7.576 13.92-13.693c.788-.774.798-2.041.023-2.828s-2.04-.798-2.828-.024z"/></g></svg>