<svg id="Layer_1" enable-background="new 0 0 512 512" viewBox="0 0 512 512" xmlns="http://www.w3.org/2000/svg"><path d="m309.37 387.99c0-14.67-11.93-26.6-26.6-26.6h-3.3c3.86-13.08 12.91-23.67 23.17-35.65 17.71-20.66 37.78-44.08 36.78-87.77-.04-59.27-48.27-107.48-107.55-107.48s-107.51 48.21-107.55 107.48c-1 43.69 19.07 67.11 36.78 87.77 10.26 11.98 19.31 22.56 23.17 35.65h-3.3c-14.67 0-26.6 11.93-26.6 26.6 0 8.3 3.82 15.72 9.8 20.6-5.97 4.88-9.8 12.3-9.8 20.6 0 14.67 11.93 26.6 26.6 26.6h16.84v11.25c0 9.2 3.98 17.27 11.19 22.73 6.15 4.65 14.32 7.21 22.98 7.21 16.88 0 33.96-10.28 33.96-29.94v-11.24h16.84c14.67 0 26.6-11.93 26.6-26.6 0-8.3-3.82-15.72-9.8-20.6 5.97-4.89 9.79-12.31 9.79-20.61zm-139.17-70.06c-17.11-19.97-34.81-40.61-33.89-79.75 0-.05 0-.09 0-.14 0-52.69 42.86-95.55 95.55-95.55s95.55 42.86 95.55 95.55v.14c.92 39.14-16.78 59.79-33.89 79.75-11.54 13.46-22.47 26.26-26.46 43.46h-29.2v-84.41h16.96c3.31 0 6-2.69 6-6v-45.92c0-3.31-2.69-6-6-6h-45.92c-3.31 0-6 2.69-6 6v45.92c0 3.31 2.69 6 6 6h16.96v84.41h-29.2c-3.99-17.2-14.92-30-26.46-43.46zm44.7-52.95v-33.92h33.92v33.92zm39.03 202.08c0 5.54-2.14 9.98-6.36 13.2-3.97 3.02-9.65 4.75-15.6 4.75-10.68 0-22.17-5.62-22.17-17.94v-11.27h44.14v11.26zm43.44-37.86c0 8.05-6.55 14.6-14.6 14.6h-101.81c-8.05 0-14.6-6.55-14.6-14.6s6.55-14.6 14.6-14.6h101.81c8.05-.01 14.6 6.55 14.6 14.6zm-116.41-26.61c-8.05 0-14.6-6.55-14.6-14.6s6.55-14.6 14.6-14.6h101.81c8.05 0 14.6 6.55 14.6 14.6s-6.55 14.6-14.6 14.6zm44.9-290.39v-44.25c0-3.31 2.69-6 6-6s6 2.69 6 6v44.25c0 3.31-2.69 6-6 6s-6-2.69-6-6zm-89.23-17.12c-1.66-2.87-.67-6.54 2.2-8.2s6.54-.67 8.2 2.2l22.12 38.32c1.66 2.87.67 6.54-2.2 8.2-.94.55-1.98.8-2.99.8-2.07 0-4.09-1.08-5.2-3zm-25.39 90.23-38.32-22.12c-2.87-1.66-3.85-5.33-2.2-8.2 1.66-2.87 5.33-3.85 8.2-2.2l38.32 22.12c2.87 1.66 3.85 5.33 2.2 8.2-1.11 1.92-3.13 3-5.2 3-1.02 0-2.06-.26-3-.8zm-15.2 56.71c3.31 0 6 2.69 6 6s-2.69 6-6 6h-44.24c-3.31 0-6-2.69-6-6s2.69-6 6-6zm198.54-114.62 22.12-38.32c1.66-2.87 5.33-3.85 8.2-2.2 2.87 1.66 3.85 5.33 2.2 8.2l-22.12 38.32c-1.11 1.92-3.13 3-5.2 3-1.02 0-2.05-.26-2.99-.8-2.89-1.66-3.87-5.33-2.21-8.2zm49.71 55.71c-1.66-2.87-.67-6.54 2.2-8.2l38.32-22.12c2.87-1.66 6.54-.67 8.2 2.2s.67 6.54-2.2 8.2l-38.32 22.12c-.94.55-1.98.8-2.99.8-2.08 0-4.1-1.08-5.21-3zm17.39 64.91c0-3.31 2.69-6 6-6h44.25c3.31 0 6 2.69 6 6s-2.69 6-6 6h-44.25c-3.31 0-6-2.69-6-6zm53.39 84.65-29.31-11.4-11.4-29.31c-.9-2.31-3.12-3.83-5.59-3.83s-4.7 1.52-5.59 3.83l-11.4 29.31-29.31 11.4c-2.31.9-3.83 3.12-3.83 5.59s1.52 4.7 3.83 5.59l29.31 11.4 11.4 29.31c.9 2.31 3.12 3.83 5.59 3.83s4.7-1.52 5.59-3.83l11.4-29.31 29.31-11.4c2.31-.9 3.83-3.12 3.83-5.59s-1.53-4.69-3.83-5.59zm-36.12 12.36c-1.57.61-2.81 1.85-3.42 3.42l-6.76 17.39-6.77-17.39c-.61-1.57-1.85-2.81-3.42-3.42l-17.39-6.76 17.39-6.76c1.57-.61 2.81-1.85 3.42-3.42l6.76-17.39 6.76 17.39c.61 1.57 1.85 2.81 3.42 3.42l17.39 6.76zm-237.69-12.36-29.31-11.4-11.4-29.31c-.9-2.31-3.12-3.83-5.59-3.83s-4.7 1.52-5.59 3.83l-11.4 29.31-29.31 11.4c-2.31.9-3.83 3.12-3.83 5.59s1.52 4.7 3.83 5.59l29.31 11.4 11.4 29.31c.9 2.31 3.12 3.83 5.59 3.83s4.7-1.52 5.59-3.83l11.4-29.31 29.31-11.4c2.31-.9 3.83-3.12 3.83-5.59s-1.53-4.69-3.83-5.59zm-36.12 12.36c-1.57.61-2.81 1.85-3.42 3.42l-6.76 17.39-6.76-17.39c-.61-1.57-1.85-2.81-3.42-3.42l-17.39-6.76 17.39-6.76c1.57-.61 2.81-1.85 3.42-3.42l6.76-17.39 6.76 17.39c.61 1.57 1.85 2.81 3.42 3.42l17.39 6.76zm-36.42-233.61c.9 2.31 3.12 3.83 5.59 3.83s4.7-1.52 5.59-3.83l11.4-29.31 29.31-11.4c2.31-.9 3.83-3.12 3.83-5.59s-1.52-4.7-3.83-5.59l-29.31-11.39-11.4-29.31c-.9-2.31-3.12-3.83-5.59-3.83s-4.7 1.52-5.59 3.83l-11.4 29.31-29.31 11.4c-2.31.9-3.83 3.12-3.83 5.59s1.52 4.7 3.83 5.59l29.31 11.4zm-4.59-53.06c1.57-.61 2.81-1.85 3.42-3.42l6.76-17.39 6.76 17.39c.61 1.57 1.85 2.81 3.42 3.42l17.39 6.76-17.39 6.76c-1.57.61-2.81 1.85-3.42 3.42l-6.76 17.4-6.76-17.39c-.61-1.57-1.85-2.81-3.42-3.42l-17.39-6.76zm419.86 131.48-29.31-11.4-11.4-29.31c-.9-2.31-3.12-3.83-5.59-3.83s-4.7 1.52-5.59 3.83l-11.4 29.31-29.31 11.4c-2.31.9-3.83 3.12-3.83 5.59s1.52 4.7 3.83 5.59l29.31 11.4 11.4 29.31c.9 2.31 3.12 3.83 5.59 3.83s4.7-1.52 5.59-3.83l11.4-29.31 29.31-11.4c2.31-.9 3.83-3.12 3.83-5.59s-1.53-4.7-3.83-5.59zm-36.12 12.35c-1.57.61-2.81 1.85-3.42 3.42l-6.76 17.39-6.76-17.39c-.61-1.57-1.85-2.81-3.42-3.42l-17.39-6.76 17.39-6.76c1.57-.61 2.81-1.85 3.42-3.42l6.76-17.39 6.76 17.39c.61 1.57 1.85 2.81 3.42 3.42l17.39 6.76z"/></svg>