<svg clip-rule="evenodd" fill-rule="evenodd" height="512" stroke-linejoin="round" stroke-miterlimit="2" viewBox="0 0 32 32" width="512" xmlns="http://www.w3.org/2000/svg"><g><g><g transform="translate(-105 -102)"><path d="m130 124c.552 0 1-.448 1-1 0-5.519-4.481-10-10-10s-10 4.481-10 10c0 .552.448 1 1 1zm-1.062-2h-15.876c.493-3.944 3.861-7 7.938-7s7.445 3.056 7.938 7z"/></g><g transform="translate(-104 -101)"><path d="m104 121h32v2h-32z"/></g><g transform="translate(-104 -102)"><path d="m119 107h2v4h-2z"/></g><g transform="matrix(.707 .707 -.707 .707 18.121 -150.827)"><path d="m119 107h2v4h-2z"/></g><g transform="matrix(.707 -.707 .707 .707 -155.827 18.879)"><path d="m119 107h2v4h-2z"/></g><g transform="matrix(1 0 0 -.8 -105 127)"><path d="m121 125 3 5h-6z"/></g></g></g></svg>