<svg id="Icon" viewBox="0 0 24 24" xmlns="http://www.w3.org/2000/svg" xmlns:xlink="http://www.w3.org/1999/xlink"><linearGradient id="Gradient_2_color" gradientUnits="userSpaceOnUse" x1="3.85" x2="18.151" y1="20.737" y2="6.436"><stop offset="0" stop-color="#5433ff"/><stop offset="1" stop-color="#20bdff"/></linearGradient><path d="m12 11.75c-2.619 0-4.75-2.131-4.75-4.75s2.131-4.75 4.75-4.75 4.75 2.131 4.75 4.75-2.131 4.75-4.75 4.75zm0-8c-1.792 0-3.25 1.458-3.25 3.25s1.458 3.25 3.25 3.25 3.25-1.458 3.25-3.25-1.458-3.25-3.25-3.25zm-2.25 17.25c0-.414-.336-.75-.75-.75h-3c-.689 0-1.25-.561-1.25-1.25 0-2.344 1.907-4.25 4.25-4.25h2c.414 0 .75-.336.75-.75s-.336-.75-.75-.75h-2c-3.17 0-5.75 2.579-5.75 5.75 0 1.517 1.233 2.75 2.75 2.75h3c.414 0 .75-.336.75-.75zm10.559-6.895-1.414-1.414c-.66-.659-1.813-.661-2.475 0l-4.657 4.657c-.331.33-.513.77-.513 1.237v1.414c0 .965.785 1.75 1.75 1.75h1.414c.467 0 .907-.182 1.237-.513l4.657-4.657c.331-.33.513-.77.513-1.237s-.182-.906-.512-1.237zm-5.718 6.071c-.047.047-.111.073-.177.073h-1.414c-.138 0-.25-.112-.25-.25v-1.414c0-.066.026-.13.073-.177l2.763-2.763 1.768 1.768zm4.657-4.657-.834.834-1.768-1.768.834-.834c.064-.063.138-.073.177-.073s.113.01.177.073l1.414 1.414c.064.063.073.139.073.177 0 .039-.009.113-.073.177z" fill="url(#Gradient_2_color)"/></svg>