<svg id="Layer_1" enable-background="new 0 0 512 512" height="512" viewBox="0 0 512 512" width="512" xmlns="http://www.w3.org/2000/svg" xmlns:xlink="http://www.w3.org/1999/xlink"><linearGradient id="SVGID_1_" gradientUnits="userSpaceOnUse" x1="256" x2="256" y1="512" y2="70"><stop offset="0" stop-color="#ffc8d1"/><stop offset="1" stop-color="#fff6f7"/></linearGradient><linearGradient id="SVGID_00000096773218985608169910000017973711103991501731_" gradientUnits="userSpaceOnUse" x1="256" x2="256" y1="462" y2="0"><stop offset="0" stop-color="#fd3a84"/><stop offset="1" stop-color="#ffa68d"/></linearGradient><g><path d="m467 512h-422c-24.813 0-45-20.187-45-45v-352c0-24.813 20.187-45 45-45h422c24.813 0 45 20.187 45 45v352c0 24.813-20.187 45-45 45z" fill="url(#SVGID_1_)"/><path d="m301 45v25h-30v-25c0-8.271-6.729-15-15-15s-15 6.729-15 15v60c0 8.271 6.729 15 15 15 8.284 0 15 6.716 15 15s-6.716 15-15 15c-24.813 0-45-20.187-45-45v-60c0-24.813 20.187-45 45-45s45 20.187 45 45zm105-45c-24.813 0-45 20.187-45 45v60c0 24.813 20.187 45 45 45 8.284 0 15-6.716 15-15s-6.716-15-15-15c-8.271 0-15-6.729-15-15v-60c0-8.271 6.729-15 15-15s15 6.729 15 15v25h30v-25c0-24.813-20.187-45-45-45zm-300 0c-24.813 0-45 20.187-45 45v60c0 24.813 20.187 45 45 45 8.284 0 15-6.716 15-15s-6.716-15-15-15c-8.271 0-15-6.729-15-15v-60c0-8.271 6.729-15 15-15s15 6.729 15 15v25h30v-25c0-24.813-20.187-45-45-45zm305 415.676c0 25.543-20.781 46.324-46.324 46.324h-217.352c-25.543 0-46.324-20.781-46.324-46.324 0-8.394 2.282-16.635 6.602-23.833l105.246-175.411c9.042-15.07 25.577-24.432 43.152-24.432s34.11 9.362 43.152 24.433l105.246 175.41c4.319 7.198 6.602 15.439 6.602 23.833zm-140-28.676c0-8.284-6.716-15-15-15s-15 6.716-15 15 6.716 15 15 15 15-6.716 15-15zm0-110c0-8.284-6.716-15-15-15s-15 6.716-15 15v60c0 8.284 6.716 15 15 15s15-6.716 15-15z" fill="url(#SVGID_00000096773218985608169910000017973711103991501731_)"/></g></svg>