<svg id="Layer_1" enable-background="new 0 0 64 64" viewBox="0 0 64 64" xmlns="http://www.w3.org/2000/svg"><g><path d="m42.16 44.1c-.16 0-.32-.04-.47-.12l-17.01-9.06c-2.9-1.55-6.42-1.4-9.19.37l-12.44 7.99c-.47.3-1.08.16-1.38-.3s-.16-1.08.3-1.38l12.44-7.98c3.38-2.16 7.67-2.34 11.21-.45l17.01 9.06c.49.26.67.87.41 1.35-.17.33-.52.52-.88.52z"/></g><g><path d="m61.49 39.37c-.17 0-.35-.04-.5-.14l-10.43-6.12c-2.21-1.3-4.93-1.44-7.27-.38l-11.83 5.37c-.5.23-1.09 0-1.32-.5s0-1.1.5-1.32l11.82-5.36c2.93-1.33 6.33-1.15 9.1.48l10.43 6.12c.48.28.64.89.36 1.37-.19.31-.52.48-.86.48z"/></g><g><path d="m11.5 37.67c-.5 0-.93-.37-.99-.88-.04-.37-.06-.76-.06-1.27 0-8.62 7.02-15.64 15.64-15.64 7.59 0 14.05 5.41 15.37 12.87.1.54-.27 1.06-.81 1.16s-1.06-.27-1.16-.81c-1.15-6.5-6.78-11.22-13.4-11.22-7.52 0-13.64 6.12-13.64 13.64 0 .43.02.75.05 1.03.07.55-.32 1.05-.87 1.11-.05 0-.09.01-.13.01z"/></g><g><path d="m8.06 31.26c-.05 0-.1 0-.16-.01l-5.21-.82c-.55-.09-.92-.6-.83-1.14.09-.55.6-.91 1.14-.83l5.21.82c.55.09.92.6.83 1.14-.07.49-.5.84-.98.84z"/></g><g><path d="m11.04 22.99c-.21 0-.41-.06-.59-.2l-4.55-3.34c-.44-.33-.54-.95-.21-1.4s.95-.54 1.4-.21l4.54 3.35c.44.33.54.95.21 1.4-.19.26-.5.4-.8.4z"/></g><g><path d="m18.89 17.89c-.34 0-.66-.17-.85-.47l-2.96-4.8c-.29-.47-.14-1.09.33-1.38s1.09-.14 1.38.33l2.96 4.8c.29.47.14 1.09-.33 1.38-.16.09-.35.14-.53.14z"/></g><g><path d="m42.76 26.09c-.39 0-.76-.23-.92-.6-.22-.51.01-1.1.52-1.31l4.84-2.09c.5-.22 1.09.01 1.31.52s-.01 1.1-.52 1.31l-4.84 2.09c-.12.05-.26.08-.39.08z"/></g><g><path d="m38.07 18.89c-.23 0-.47-.08-.66-.25-.42-.36-.46-1-.09-1.41l3.72-4.25c.36-.42.99-.46 1.41-.09.42.36.46 1 .09 1.41l-3.72 4.25c-.19.22-.47.34-.75.34z"/></g><g><path d="m27.77 16.77c-.03 0-.06 0-.1 0-.55-.05-.95-.54-.9-1.09l.55-5.76c.05-.55.54-.96 1.09-.9.55.05.95.54.9 1.09l-.55 5.76c-.05.51-.48.9-.99.9z"/></g><g><path d="m61.25 46.63h-56.72c-.55 0-1-.45-1-1s.45-1 1-1h56.72c.55 0 1 .45 1 1s-.45 1-1 1z"/></g><g><path d="m52.99 51.02h-41.98c-.55 0-1-.45-1-1s.45-1 1-1h41.97c.55 0 1 .45 1 1s-.44 1-.99 1z"/></g><g><path d="m41.2 55h-18.4c-.55 0-1-.45-1-1s.45-1 1-1h18.4c.55 0 1 .45 1 1s-.45 1-1 1z"/></g></svg>